<svg width="105" height="105" viewBox="0 0 105 105" fill="none" xmlns="http://www.w3.org/2000/svg">
<mask id="mask0" mask-type="alpha" maskUnits="userSpaceOnUse" x="0" y="0" width="105" height="105">
<rect width="105" height="105" rx="25" fill="#C4C4C4"/>
</mask>
<g mask="url(#mask0)">
<rect x="-33.3529" y="-22.2353" width="164.912" height="155.647" fill="url(#paint0_linear)"/>
<path d="M64.5441 60.5295C69.4853 58.9853 77.2058 57.1324 88.0146 65.7795C93.2918 65.1593 102.529 70.103 103.456 73.8089C99.4411 72.5736 97.8969 76.5883 93.5734 74.4265C98.5146 77.5148 107.162 81.2206 117.044 127.547H44.4432C37.3676 100.985 40.147 93.2648 48.7941 79.0589C45.706 71.3383 42.3088 62.6912 43.5441 58.9853C43.9064 57.8986 44.7794 56.5148 45.3971 55.8971C46.0147 57.4412 46.6324 58.3677 48.4853 58.3677C49.4118 57.4412 48.4853 55.5883 47.5588 53.7353C46.9412 52.5001 50.9559 50.3383 51.8823 49.7206C55.8971 53.4265 62.3823 60.5295 64.5441 60.5295Z" fill="url(#paint1_linear)"/>
<path d="M10.75 16.084C10.2927 16.084 9.92867 15.8903 9.658 15.503C9.392 15.1157 9.259 14.5627 9.259 13.844C9.259 13.1347 9.392 12.5793 9.658 12.178C9.92867 11.7767 10.2927 11.576 10.75 11.576C11.2073 11.576 11.569 11.7767 11.835 12.178C12.1057 12.5793 12.241 13.1347 12.241 13.844C12.241 14.5627 12.1057 15.1157 11.835 15.503C11.569 15.8903 11.2073 16.084 10.75 16.084ZM9.994 13.844C9.994 14.0353 10.0033 14.2127 10.022 14.376L11.366 12.78C11.24 12.402 11.0347 12.213 10.75 12.213C10.498 12.213 10.309 12.3577 10.183 12.647C10.057 12.9317 9.994 13.3307 9.994 13.844ZM10.75 15.475C11.002 15.475 11.191 15.335 11.317 15.055C11.443 14.7703 11.506 14.3667 11.506 13.844C11.506 13.662 11.4967 13.4917 11.478 13.333L10.134 14.922C10.26 15.2907 10.4653 15.475 10.75 15.475Z" fill="white"/>
<path d="M43.75 52.084C43.2927 52.084 42.9287 51.8903 42.658 51.503C42.392 51.1157 42.259 50.5627 42.259 49.844C42.259 49.1347 42.392 48.5793 42.658 48.178C42.9287 47.7767 43.2927 47.576 43.75 47.576C44.2073 47.576 44.569 47.7767 44.835 48.178C45.1057 48.5793 45.241 49.1347 45.241 49.844C45.241 50.5627 45.1057 51.1157 44.835 51.503C44.569 51.8903 44.2073 52.084 43.75 52.084ZM42.994 49.844C42.994 50.0353 43.0033 50.2127 43.022 50.376L44.366 48.78C44.24 48.402 44.0347 48.213 43.75 48.213C43.498 48.213 43.309 48.3577 43.183 48.647C43.057 48.9317 42.994 49.3307 42.994 49.844ZM43.75 51.475C44.002 51.475 44.191 51.335 44.317 51.055C44.443 50.7703 44.506 50.3667 44.506 49.844C44.506 49.662 44.4967 49.4917 44.478 49.333L43.134 50.922C43.26 51.2907 43.4653 51.475 43.75 51.475Z" fill="white"/>
<path d="M40.75 45.084C40.2927 45.084 39.9287 44.8903 39.658 44.503C39.392 44.1157 39.259 43.5627 39.259 42.844C39.259 42.1347 39.392 41.5793 39.658 41.178C39.9287 40.7767 40.2927 40.576 40.75 40.576C41.2073 40.576 41.569 40.7767 41.835 41.178C42.1057 41.5793 42.241 42.1347 42.241 42.844C42.241 43.5627 42.1057 44.1157 41.835 44.503C41.569 44.8903 41.2073 45.084 40.75 45.084ZM39.994 42.844C39.994 43.0353 40.0033 43.2127 40.022 43.376L41.366 41.78C41.24 41.402 41.0347 41.213 40.75 41.213C40.498 41.213 40.309 41.3577 40.183 41.647C40.057 41.9317 39.994 42.3307 39.994 42.844ZM40.75 44.475C41.002 44.475 41.191 44.335 41.317 44.055C41.443 43.7703 41.506 43.3667 41.506 42.844C41.506 42.662 41.4967 42.4917 41.478 42.333L40.134 43.922C40.26 44.2907 40.4653 44.475 40.75 44.475Z" fill="white"/>
<path d="M35.75 44.084C35.2927 44.084 34.9287 43.8903 34.658 43.503C34.392 43.1157 34.259 42.5627 34.259 41.844C34.259 41.1347 34.392 40.5793 34.658 40.178C34.9287 39.7767 35.2927 39.576 35.75 39.576C36.2073 39.576 36.569 39.7767 36.835 40.178C37.1057 40.5793 37.241 41.1347 37.241 41.844C37.241 42.5627 37.1057 43.1157 36.835 43.503C36.569 43.8903 36.2073 44.084 35.75 44.084ZM34.994 41.844C34.994 42.0353 35.0033 42.2127 35.022 42.376L36.366 40.78C36.24 40.402 36.0347 40.213 35.75 40.213C35.498 40.213 35.309 40.3577 35.183 40.647C35.057 40.9317 34.994 41.3307 34.994 41.844ZM35.75 43.475C36.002 43.475 36.191 43.335 36.317 43.055C36.443 42.7703 36.506 42.3667 36.506 41.844C36.506 41.662 36.4967 41.4917 36.478 41.333L35.134 42.922C35.26 43.2907 35.4653 43.475 35.75 43.475Z" fill="white"/>
<path d="M21.75 25.084C21.2927 25.084 20.9287 24.8903 20.658 24.503C20.392 24.1157 20.259 23.5627 20.259 22.844C20.259 22.1347 20.392 21.5793 20.658 21.178C20.9287 20.7767 21.2927 20.576 21.75 20.576C22.2073 20.576 22.569 20.7767 22.835 21.178C23.1057 21.5793 23.241 22.1347 23.241 22.844C23.241 23.5627 23.1057 24.1157 22.835 24.503C22.569 24.8903 22.2073 25.084 21.75 25.084ZM20.994 22.844C20.994 23.0353 21.0033 23.2127 21.022 23.376L22.366 21.78C22.24 21.402 22.0347 21.213 21.75 21.213C21.498 21.213 21.309 21.3577 21.183 21.647C21.057 21.9317 20.994 22.3307 20.994 22.844ZM21.75 24.475C22.002 24.475 22.191 24.335 22.317 24.055C22.443 23.7703 22.506 23.3667 22.506 22.844C22.506 22.662 22.4967 22.4917 22.478 22.333L21.134 23.922C21.26 24.2907 21.4653 24.475 21.75 24.475Z" fill="white"/>
<path d="M25.75 33.084C25.2927 33.084 24.9287 32.8903 24.658 32.503C24.392 32.1157 24.259 31.5627 24.259 30.844C24.259 30.1347 24.392 29.5793 24.658 29.178C24.9287 28.7767 25.2927 28.576 25.75 28.576C26.2073 28.576 26.569 28.7767 26.835 29.178C27.1057 29.5793 27.241 30.1347 27.241 30.844C27.241 31.5627 27.1057 32.1157 26.835 32.503C26.569 32.8903 26.2073 33.084 25.75 33.084ZM24.994 30.844C24.994 31.0353 25.0033 31.2127 25.022 31.376L26.366 29.78C26.24 29.402 26.0347 29.213 25.75 29.213C25.498 29.213 25.309 29.3577 25.183 29.647C25.057 29.9317 24.994 30.3307 24.994 30.844ZM25.75 32.475C26.002 32.475 26.191 32.335 26.317 32.055C26.443 31.7703 26.506 31.3667 26.506 30.844C26.506 30.662 26.4967 30.4917 26.478 30.333L25.134 31.922C25.26 32.2907 25.4653 32.475 25.75 32.475Z" fill="white"/>
<path d="M32.456 36V32.5L31.665 32.78L31.497 32.255L32.659 31.639H33.247V36H32.456Z" fill="white"/>
<path d="M13.456 24V20.5L12.665 20.78L12.497 20.255L13.659 19.639H14.247V24H13.456Z" fill="white"/>
</g>
<defs>
<linearGradient id="paint0_linear" x1="102.838" y1="1.2353" x2="2.47061" y2="102.838" gradientUnits="userSpaceOnUse">
<stop stop-color="#002BC5"/>
<stop offset="0.364583" stop-color="#5C1AB5"/>
<stop offset="0.614583" stop-color="#9011AC"/>
<stop offset="1" stop-color="#EC009C"/>
</linearGradient>
<linearGradient id="paint1_linear" x1="49.7206" y1="46.6324" x2="105.926" y2="116.735" gradientUnits="userSpaceOnUse">
<stop stop-color="white"/>
<stop offset="1" stop-color="#FFE665"/>
</linearGradient>
</defs>
</svg>
