<svg width="17" height="11" viewBox="0 0 17 11" fill="none" xmlns="http://www.w3.org/2000/svg">
<path d="M4.32 0.00799775C5.616 0.00799775 6.564 0.451998 7.164 1.34C7.428 1.7 7.644 2.18 7.812 2.78C7.98 3.38 8.064 4.04 8.064 4.76C8.064 6.008 7.74 7.16 7.092 8.216C6.444 9.272 5.496 10.088 4.248 10.664L3.924 10.016C4.548 9.728 5.1 9.32 5.58 8.792C6.084 8.24 6.432 7.664 6.624 7.064C6.744 6.728 6.804 6.332 6.804 5.876C6.804 5.516 6.78 5.252 6.732 5.084C6.108 5.828 5.232 6.2 4.104 6.2C3.144 6.2 2.376 5.936 1.8 5.408C1.224 4.856 0.936 4.088 0.936 3.104C0.936 2.168 1.248 1.424 1.872 0.872C2.496 0.295998 3.312 0.00799775 4.32 0.00799775ZM12.6 0.00799775C13.896 0.00799775 14.844 0.451998 15.444 1.34C15.708 1.7 15.924 2.18 16.092 2.78C16.26 3.38 16.344 4.04 16.344 4.76C16.344 6.008 16.02 7.16 15.372 8.216C14.724 9.272 13.776 10.088 12.528 10.664L12.204 10.016C12.828 9.728 13.38 9.32 13.86 8.792C14.364 8.24 14.712 7.664 14.904 7.064C15.024 6.728 15.084 6.332 15.084 5.876C15.084 5.516 15.06 5.252 15.012 5.084C14.388 5.828 13.512 6.2 12.384 6.2C11.424 6.2 10.656 5.936 10.08 5.408C9.504 4.856 9.216 4.088 9.216 3.104C9.216 2.168 9.528 1.424 10.152 0.872C10.776 0.295998 11.592 0.00799775 12.6 0.00799775Z" fill="white"/>
</svg>
