<svg width="16" height="12" viewBox="0 0 16 12" fill="none" xmlns="http://www.w3.org/2000/svg">
<path d="M12.356 11.376C11.06 11.376 10.112 10.932 9.512 10.044C9.248 9.684 9.032 9.204 8.864 8.604C8.696 8.004 8.612 7.344 8.612 6.624C8.612 5.376 8.936 4.224 9.584 3.168C10.232 2.112 11.18 1.296 12.428 0.719999L12.752 1.368C12.128 1.656 11.564 2.076 11.06 2.628C10.58 3.156 10.244 3.72 10.052 4.32C9.932 4.656 9.872 5.052 9.872 5.508C9.872 5.868 9.896 6.132 9.944 6.3C10.568 5.556 11.444 5.184 12.572 5.184C13.532 5.184 14.3 5.46 14.876 6.012C15.452 6.54 15.74 7.296 15.74 8.28C15.74 9.216 15.428 9.972 14.804 10.548C14.18 11.1 13.364 11.376 12.356 11.376ZM4.076 11.376C2.78 11.376 1.832 10.932 1.232 10.044C0.968 9.684 0.752 9.204 0.584 8.604C0.416 8.004 0.332 7.344 0.332 6.624C0.332 5.376 0.656 4.224 1.304 3.168C1.952 2.112 2.9 1.296 4.148 0.719999L4.472 1.368C3.848 1.656 3.284 2.076 2.78 2.628C2.3 3.156 1.964 3.72 1.772 4.32C1.652 4.656 1.592 5.052 1.592 5.508C1.592 5.868 1.616 6.132 1.664 6.3C2.288 5.556 3.164 5.184 4.292 5.184C5.252 5.184 6.02 5.46 6.596 6.012C7.172 6.54 7.46 7.296 7.46 8.28C7.46 9.216 7.148 9.972 6.524 10.548C5.9 11.1 5.084 11.376 4.076 11.376Z" fill="white"/>
</svg>
