<svg width="828" height="395" viewBox="0 0 828 395" fill="none" xmlns="http://www.w3.org/2000/svg">
<mask id="mask0" mask-type="alpha" maskUnits="userSpaceOnUse" x="0" y="0" width="823" height="553">
<path d="M229.588 356.23L230.903 376.451C230.709 376.497 230.516 376.549 230.323 376.608L209.459 358.274L242.16 339.394L247.621 366.726C247.49 366.858 247.363 366.992 247.24 367.13L230.366 355.783L229.522 355.215L229.588 356.23ZM259.652 399.289L259.641 399.296L259.63 399.304C253.412 403.901 249.143 410.231 245.291 415.941C244.427 417.222 243.583 418.473 242.744 419.666C238.124 426.227 233.667 430.982 226.485 430.346C222.188 429.669 219.105 427.34 217.025 423.568C214.975 419.851 213.895 414.721 213.648 408.379C214.178 408.278 214.704 408.133 215.221 407.942C217.215 414.668 223.522 416.885 228.496 416.433L228.691 416.416L228.822 416.27C233.549 411.016 236.534 404.351 237.178 395.274C240.109 393.874 241.969 391.686 242.765 389.193C243.538 386.772 243.295 384.103 242.115 381.651L246.345 379.209C248.047 381.843 251.155 383.552 254.396 383.684C257.693 383.817 261.12 382.318 263.368 378.552C267.212 381.731 268.4 385.409 267.682 388.96C266.928 392.688 264.053 396.388 259.652 399.289ZM207.22 395.977C209.232 392.492 214.292 392.492 216.304 395.977C218.316 399.462 215.786 403.844 211.762 403.844C207.739 403.844 205.208 399.462 207.22 395.977ZM228.7 383.512C230.712 380.028 235.772 380.028 237.784 383.513C239.796 386.998 237.266 391.38 233.242 391.38C229.219 391.38 226.688 386.997 228.7 383.512ZM250.127 371.142C252.139 367.657 257.198 367.657 259.211 371.142C261.223 374.627 258.693 379.009 254.669 379.009C250.645 379.009 248.115 374.627 250.127 371.142Z" fill="white" stroke="white"/>
<path d="M549.21 373.76L569.893 361.819L573.298 374.311L555.47 384.604L549.21 373.76ZM580.599 355.638L604.577 341.794L610.837 352.638L584.004 368.13L580.599 355.638ZM580.288 399.957L568.323 406.865L562.063 396.022L576.884 387.465L580.288 399.957ZM587.589 381.285L617.43 364.056L623.69 374.899L590.994 393.776L587.589 381.285ZM587.278 425.604L581.176 429.127L574.916 418.284L583.874 413.112L587.278 425.604ZM594.579 406.931L630.283 386.318L636.543 397.161L597.984 419.423L594.579 406.931Z" fill="white" stroke="white"/>
<mask id="path-3-inside-1" mask-type="luminance" fill="white">
<path d="M797.706 256.134C794.981 257.725 792.994 259.75 791.573 261.874C790.01 260.847 788.541 259.995 787.869 259.118C787.087 258.096 786.539 257.53 785.951 256.113C785.364 254.696 785.05 252.39 784.959 252.256C784.868 252.121 784.321 251.542 782.737 252.443C781.153 253.344 779.988 254.435 780.069 254.944C780.15 255.454 780.387 256.565 780.763 257.652C781.31 259.24 781.385 265.996 781.294 269.604C780.159 268.873 779.175 268.215 778.663 267.546C777.881 266.523 777.333 265.958 776.745 264.541C776.157 263.124 775.843 260.818 775.753 260.684C775.662 260.549 775.114 259.97 773.531 260.871C771.947 261.772 770.781 262.863 770.862 263.372C770.944 263.882 771.335 264.951 771.556 266.08C771.777 267.209 772.869 277.916 773.144 280.696C773.283 282.112 773.361 283.271 773.403 284.068L773.398 284.066C773.398 284.066 773.403 284.12 773.41 284.207C773.446 284.887 773.454 285.269 773.454 285.269C773.454 285.269 773.459 285.27 773.462 285.277C773.473 285.784 773.451 286.274 773.337 286.34C773.259 286.386 772.508 285.454 771.969 283.887C770.833 280.609 769.543 275.22 769.436 275.073C769.382 274.995 769.18 274.042 767.795 274.286C766.448 274.52 766.441 275.428 766.342 275.489C766.246 275.549 766.309 275.831 766.309 275.831C766.309 275.831 764.56 269.941 760.957 272.021C758.705 273.322 757.007 277.588 756.758 280.71C756.091 281.799 754.669 284.133 753.167 286.613C752.588 287.569 752.001 288.539 751.441 289.466C751.349 289.436 751.258 289.406 751.164 289.378C744.103 287.238 734.12 288.607 730.845 282.142C729.653 279.792 726.981 273.335 737.383 257.626C745.905 244.759 756.431 240.869 760.183 243.55C765.546 247.379 763.637 261.353 752.018 269.918C747.591 273.183 744.04 272.785 743.027 272.461C741.959 272.117 741.842 272.141 741.677 272.419C741.405 272.867 742.023 273.358 742.388 273.652C743.317 274.402 745.828 275.235 748.915 274.587C751.63 274.02 757.426 271.221 762.646 264.743C768.493 257.484 769.696 245.991 764.058 240.217C758.325 234.346 745.604 238.673 737.011 248.751C731.9 254.732 727.009 262.338 724.708 269.909C721.971 278.91 723.818 284.308 725.378 286.107C730.92 292.498 743.54 291.459 749.516 292.638C749.382 292.859 749.258 293.065 749.143 293.258C747.72 295.392 742.445 303.711 742.967 308.983C743.559 314.962 748.01 316.926 749.919 316.437C755.837 314.911 759.596 309.337 759.986 303.522C760.376 297.706 756.88 292.442 754.151 290.697C754.118 290.677 754.082 290.654 754.049 290.634C754.389 290.033 754.732 289.422 755.077 288.814C755.748 287.636 756.421 286.504 757.011 285.537C757.292 287.14 757.852 288.93 758.992 291.327C760.332 294.136 763.446 296.977 765.677 297.514C766.661 297.75 767.432 297.323 767.918 297.042C769.597 296.073 769.557 294.235 769.447 292.095C769.31 289.47 768.869 286.582 768.869 286.582C768.869 286.582 771.398 293.62 774.538 291.808C775.682 291.147 775.976 288.999 776.052 287.947C776.057 287.957 776.062 287.958 776.062 287.958C776.062 287.958 776.063 287.892 776.066 287.76C776.078 287.51 776.08 287.356 776.08 287.356C776.08 287.356 776.076 287.342 776.068 287.32C776.066 286.256 776.037 283.847 775.832 279.962C775.568 274.941 774.657 268.989 774.657 268.989C774.657 268.989 775.519 270.074 777.231 271.707C778.236 272.665 779.698 273.526 780.973 274.424C780.88 275.325 780.811 275.852 780.811 275.852C780.811 275.852 780.818 275.857 780.829 275.868C780.744 276.565 780.636 277.327 780.501 278.087C780.016 280.846 779.381 284.038 779.487 284.794C779.61 285.684 779.985 286.176 780.799 286.275C781.394 286.349 782.157 285.97 782.898 285.476C784.246 284.572 785.029 283.655 785.397 283.164C786.003 282.458 786.642 281.524 787.118 280.436C787.997 278.428 787.99 276.285 786.673 274.207C785.946 273.061 784.899 272.114 783.792 271.288C783.818 271.008 783.838 270.727 783.86 270.441C784.237 265.523 783.871 260.566 783.871 260.566C783.871 260.566 784.732 261.651 786.444 263.284C787.312 264.109 788.512 264.863 789.648 265.625C788.442 268.777 788.274 271.731 788.596 273.418C789.193 276.538 790.58 277.307 792.061 276.808C792.731 276.582 793.424 275.817 793.903 275.18C794.546 274.456 795.246 273.47 795.761 272.298C796.641 270.291 797.202 267.867 795.883 265.785C795.283 264.836 794.464 264.027 793.57 263.308C795.031 261.395 797.263 259.516 800.645 258.054C807.905 254.923 811.69 258.398 812.461 260.322C813.233 262.246 812.37 264.049 812.063 264.617C811.756 265.185 811.67 265.374 811.835 265.57C812.078 265.856 812.289 265.717 812.657 265.413C813.163 264.994 815.394 261.907 813.628 258.548C811.384 254.284 804.752 252.014 797.706 256.134ZM755.483 304.074C754.65 307.833 752.04 310.578 750.238 310.575C748.293 310.572 746.781 306.62 748.04 302.415C748.809 299.854 750.138 297.135 751.061 295.398C751.276 295.009 751.591 294.44 751.976 293.752C752.042 293.64 752.08 293.579 752.08 293.579L752.075 293.577C752.15 293.443 752.225 293.309 752.304 293.167C755.45 296.298 756.358 300.13 755.483 304.074ZM765.455 283.44C765.774 285.808 766.96 291.648 765.806 291.962C764.819 292.232 762.149 288.813 761.242 284.455C760.788 282.261 760.813 279.308 761.086 278.011C761.521 275.926 762.614 274.694 763.265 275.062C764.098 275.533 765.256 281.959 765.455 283.44ZM782.749 282.085C782.516 282.45 782.273 282.738 782.084 282.734C781.944 282.732 782.054 282.364 782.054 282.364C782.054 282.364 782.695 279.56 782.885 278.346C782.995 277.639 783.113 276.805 783.235 275.879C783.276 275.942 783.315 276.002 783.35 276.064C784.608 278.251 783.348 280.947 782.749 282.085ZM791.819 273.67C791.47 273.637 791.183 273.042 790.972 270.795C790.888 269.912 790.941 268.317 791.563 266.458C791.977 266.836 792.323 267.224 792.559 267.64C794.131 270.401 792.761 272.561 791.819 273.67Z"/>
</mask>
<path d="M797.706 256.134C794.981 257.725 792.994 259.75 791.573 261.874C790.01 260.847 788.541 259.995 787.869 259.118C787.087 258.096 786.539 257.53 785.951 256.113C785.364 254.696 785.05 252.39 784.959 252.256C784.868 252.121 784.321 251.542 782.737 252.443C781.153 253.344 779.988 254.435 780.069 254.944C780.15 255.454 780.387 256.565 780.763 257.652C781.31 259.24 781.385 265.996 781.294 269.604C780.159 268.873 779.175 268.215 778.663 267.546C777.881 266.523 777.333 265.958 776.745 264.541C776.157 263.124 775.843 260.818 775.753 260.684C775.662 260.549 775.114 259.97 773.531 260.871C771.947 261.772 770.781 262.863 770.862 263.372C770.944 263.882 771.335 264.951 771.556 266.08C771.777 267.209 772.869 277.916 773.144 280.696C773.283 282.112 773.361 283.271 773.403 284.068L773.398 284.066C773.398 284.066 773.403 284.12 773.41 284.207C773.446 284.887 773.454 285.269 773.454 285.269C773.454 285.269 773.459 285.27 773.462 285.277C773.473 285.784 773.451 286.274 773.337 286.34C773.259 286.386 772.508 285.454 771.969 283.887C770.833 280.609 769.543 275.22 769.436 275.073C769.382 274.995 769.18 274.042 767.795 274.286C766.448 274.52 766.441 275.428 766.342 275.489C766.246 275.549 766.309 275.831 766.309 275.831C766.309 275.831 764.56 269.941 760.957 272.021C758.705 273.322 757.007 277.588 756.758 280.71C756.091 281.799 754.669 284.133 753.167 286.613C752.588 287.569 752.001 288.539 751.441 289.466C751.349 289.436 751.258 289.406 751.164 289.378C744.103 287.238 734.12 288.607 730.845 282.142C729.653 279.792 726.981 273.335 737.383 257.626C745.905 244.759 756.431 240.869 760.183 243.55C765.546 247.379 763.637 261.353 752.018 269.918C747.591 273.183 744.04 272.785 743.027 272.461C741.959 272.117 741.842 272.141 741.677 272.419C741.405 272.867 742.023 273.358 742.388 273.652C743.317 274.402 745.828 275.235 748.915 274.587C751.63 274.02 757.426 271.221 762.646 264.743C768.493 257.484 769.696 245.991 764.058 240.217C758.325 234.346 745.604 238.673 737.011 248.751C731.9 254.732 727.009 262.338 724.708 269.909C721.971 278.91 723.818 284.308 725.378 286.107C730.92 292.498 743.54 291.459 749.516 292.638C749.382 292.859 749.258 293.065 749.143 293.258C747.72 295.392 742.445 303.711 742.967 308.983C743.559 314.962 748.01 316.926 749.919 316.437C755.837 314.911 759.596 309.337 759.986 303.522C760.376 297.706 756.88 292.442 754.151 290.697C754.118 290.677 754.082 290.654 754.049 290.634C754.389 290.033 754.732 289.422 755.077 288.814C755.748 287.636 756.421 286.504 757.011 285.537C757.292 287.14 757.852 288.93 758.992 291.327C760.332 294.136 763.446 296.977 765.677 297.514C766.661 297.75 767.432 297.323 767.918 297.042C769.597 296.073 769.557 294.235 769.447 292.095C769.31 289.47 768.869 286.582 768.869 286.582C768.869 286.582 771.398 293.62 774.538 291.808C775.682 291.147 775.976 288.999 776.052 287.947C776.057 287.957 776.062 287.958 776.062 287.958C776.062 287.958 776.063 287.892 776.066 287.76C776.078 287.51 776.08 287.356 776.08 287.356C776.08 287.356 776.076 287.342 776.068 287.32C776.066 286.256 776.037 283.847 775.832 279.962C775.568 274.941 774.657 268.989 774.657 268.989C774.657 268.989 775.519 270.074 777.231 271.707C778.236 272.665 779.698 273.526 780.973 274.424C780.88 275.325 780.811 275.852 780.811 275.852C780.811 275.852 780.818 275.857 780.829 275.868C780.744 276.565 780.636 277.327 780.501 278.087C780.016 280.846 779.381 284.038 779.487 284.794C779.61 285.684 779.985 286.176 780.799 286.275C781.394 286.349 782.157 285.97 782.898 285.476C784.246 284.572 785.029 283.655 785.397 283.164C786.003 282.458 786.642 281.524 787.118 280.436C787.997 278.428 787.99 276.285 786.673 274.207C785.946 273.061 784.899 272.114 783.792 271.288C783.818 271.008 783.838 270.727 783.86 270.441C784.237 265.523 783.871 260.566 783.871 260.566C783.871 260.566 784.732 261.651 786.444 263.284C787.312 264.109 788.512 264.863 789.648 265.625C788.442 268.777 788.274 271.731 788.596 273.418C789.193 276.538 790.58 277.307 792.061 276.808C792.731 276.582 793.424 275.817 793.903 275.18C794.546 274.456 795.246 273.47 795.761 272.298C796.641 270.291 797.202 267.867 795.883 265.785C795.283 264.836 794.464 264.027 793.57 263.308C795.031 261.395 797.263 259.516 800.645 258.054C807.905 254.923 811.69 258.398 812.461 260.322C813.233 262.246 812.37 264.049 812.063 264.617C811.756 265.185 811.67 265.374 811.835 265.57C812.078 265.856 812.289 265.717 812.657 265.413C813.163 264.994 815.394 261.907 813.628 258.548C811.384 254.284 804.752 252.014 797.706 256.134ZM755.483 304.074C754.65 307.833 752.04 310.578 750.238 310.575C748.293 310.572 746.781 306.62 748.04 302.415C748.809 299.854 750.138 297.135 751.061 295.398C751.276 295.009 751.591 294.44 751.976 293.752C752.042 293.64 752.08 293.579 752.08 293.579L752.075 293.577C752.15 293.443 752.225 293.309 752.304 293.167C755.45 296.298 756.358 300.13 755.483 304.074ZM765.455 283.44C765.774 285.808 766.96 291.648 765.806 291.962C764.819 292.232 762.149 288.813 761.242 284.455C760.788 282.261 760.813 279.308 761.086 278.011C761.521 275.926 762.614 274.694 763.265 275.062C764.098 275.533 765.256 281.959 765.455 283.44ZM782.749 282.085C782.516 282.45 782.273 282.738 782.084 282.734C781.944 282.732 782.054 282.364 782.054 282.364C782.054 282.364 782.695 279.56 782.885 278.346C782.995 277.639 783.113 276.805 783.235 275.879C783.276 275.942 783.315 276.002 783.35 276.064C784.608 278.251 783.348 280.947 782.749 282.085ZM791.819 273.67C791.47 273.637 791.183 273.042 790.972 270.795C790.888 269.912 790.941 268.317 791.563 266.458C791.977 266.836 792.323 267.224 792.559 267.64C794.131 270.401 792.761 272.561 791.819 273.67Z" fill="white" stroke="white" stroke-width="5.33333" mask="url(#path-3-inside-1)"/>
<path d="M391.682 306.028L391.824 306.275L392.11 306.278L428.724 306.646L429.019 306.649L429.164 306.391L447.148 274.502L447.288 274.253L447.145 274.006L428.475 241.668L428.333 241.421L428.047 241.419L391.438 241.048L391.143 241.045L390.998 241.302L373.009 273.195L372.869 273.443L373.011 273.69L391.682 306.028ZM430.801 309.735L390.04 309.323L369.337 273.465L389.361 237.959L430.117 238.374L450.82 274.231L430.801 309.735Z" fill="white" stroke="white"/>
<path d="M396.488 237.075C398.316 240.242 397.231 244.29 394.07 246.115C390.903 247.943 386.855 246.858 385.027 243.692C383.202 240.531 384.286 236.482 387.453 234.654C390.614 232.829 394.663 233.914 396.488 237.075Z" fill="white" stroke="white"/>
<path d="M435.13 304.004C436.958 307.171 435.873 311.22 432.712 313.045C429.546 314.873 425.497 313.788 423.669 310.621C421.841 307.455 422.925 303.406 426.092 301.578C429.253 299.753 433.302 300.838 435.13 304.004Z" fill="white" stroke="white"/>
<path d="M396.784 302.662C398.609 305.823 397.524 309.872 394.358 311.7C391.196 313.526 387.148 312.441 385.322 309.28C383.494 306.113 384.579 302.064 387.74 300.239C390.907 298.411 394.955 299.496 396.784 302.662Z" fill="white" stroke="white"/>
<path d="M453.146 270.121C454.971 273.283 453.886 277.331 450.719 279.16C447.553 280.988 443.504 279.903 441.679 276.742C439.851 273.575 440.936 269.526 444.102 267.698C447.269 265.87 451.317 266.955 453.146 270.121Z" fill="white" stroke="white"/>
<path d="M378.48 270.96C380.305 274.121 379.22 278.17 376.054 279.998C372.893 281.823 368.844 280.738 367.019 277.577C365.19 274.41 366.276 270.362 369.437 268.537C372.603 266.709 376.652 267.793 378.48 270.96Z" fill="white" stroke="white"/>
<path d="M434.842 238.419C436.667 241.58 435.583 245.629 432.416 247.457C429.249 249.285 425.201 248.2 423.376 245.039C421.548 241.873 422.633 237.824 425.799 235.996C428.965 234.168 433.014 235.253 434.842 238.419Z" fill="white" stroke="white"/>
<path d="M392.193 303.851L392.198 304.71L392.943 304.281L445.007 274.221L445.751 273.791L445.01 273.357L392.562 242.633L391.803 242.189L391.809 243.068L392.193 303.851ZM388.7 236.814L451.855 273.812L389.164 310.006L388.7 236.814Z" fill="white" stroke="white"/>
<path d="M24.4221 278.708L24.4986 278.983L24.7744 279.057L80.5337 293.998L80.8096 294.072L81.0134 293.872C91.8174 283.267 94.552 266.333 86.6272 252.606L86.3772 252.173L85.9442 252.423L66.9096 263.413L66.4765 263.663L66.7265 264.096L69.8664 269.534L70.1164 269.968L70.5495 269.718L82.5016 262.817C84.6535 270.798 82.8522 279.295 77.8105 285.735L31.2658 273.264C29.8656 262.964 34.6009 252.427 44.105 246.94C51.6813 242.566 60.4698 242.423 67.9815 245.73L68.4766 245.948L68.655 245.437L70.8957 239.019L71.0491 238.579L70.6215 238.395C61.0863 234.285 49.8708 234.577 40.1929 240.164C26.4668 248.089 20.3676 264.122 24.4221 278.708ZM28.3106 285.865L27.1521 285.561L27.7509 286.599C32.2586 294.406 39.6831 300.103 48.3912 302.436C57.0993 304.77 66.3777 303.548 74.1852 299.041C74.1852 299.041 74.1988 299.033 74.2135 299.023C74.228 299.014 74.2583 298.994 74.2913 298.962C74.3602 298.897 74.4966 298.723 74.4382 298.474C74.3952 298.291 74.268 298.196 74.2401 298.175C74.1941 298.14 74.1484 298.116 74.1187 298.102C74.007 298.048 73.8081 297.979 73.4745 297.876C72.7826 297.663 71.371 297.263 68.5239 296.491C62.8253 294.945 51.3492 291.9 28.3106 285.865ZM36.5064 233.779C41.2108 231.063 46.4041 229.3 51.7898 228.591C57.1755 227.882 62.6481 228.241 67.8952 229.647C73.1422 231.053 78.061 233.478 82.3706 236.785C86.6803 240.092 90.2964 244.215 93.0124 248.92C98.4978 258.421 99.9843 269.712 97.1448 280.309C94.3054 290.906 87.3726 299.941 77.8717 305.426C73.1673 308.142 67.974 309.905 62.5883 310.614C57.2026 311.323 51.73 310.964 46.4829 309.558C35.886 306.719 26.851 299.786 21.3657 290.285C15.8803 280.784 14.3938 269.493 17.2332 258.896C20.0727 248.299 27.0054 239.264 36.5064 233.779Z" fill="white" stroke="white"/>
<path d="M599.568 155.091C600.808 157.239 600.072 159.985 597.924 161.225C595.776 162.466 593.029 161.73 591.789 159.582C590.549 157.434 591.285 154.687 593.433 153.447C595.581 152.207 598.328 152.943 599.568 155.091Z" fill="white" stroke="white" stroke-width="4"/>
<path d="M603.792 171.39C623.972 159.739 636.699 144.002 632.218 136.241C627.736 128.479 607.745 131.632 587.565 143.283C567.385 154.934 554.658 170.671 559.139 178.432C563.621 186.194 583.612 183.041 603.792 171.39Z" stroke="white" stroke-width="4" stroke-miterlimit="10"/>
<path d="M630.812 177.621C635.293 169.859 623.196 154.486 603.792 143.283C584.388 132.08 565.026 129.29 560.545 137.052C556.064 144.813 568.161 160.187 587.565 171.39C606.969 182.593 626.331 185.382 630.812 177.621Z" stroke="white" stroke-width="4" stroke-miterlimit="10"/>
<path d="M611.53 157.679C611.53 135.462 604.276 117.452 595.328 117.452C586.379 117.452 579.125 135.462 579.125 157.679C579.125 179.895 586.379 197.905 595.328 197.905C604.276 197.905 611.53 179.895 611.53 157.679Z" stroke="white" stroke-width="4" stroke-miterlimit="10"/>
<path d="M242.68 116.203L187.424 148.105L219.326 203.36L274.581 171.458L242.68 116.203Z" stroke="white" stroke-width="4" stroke-miterlimit="10"/>
<path d="M223.846 163.489L223.346 162.623L222.48 163.123L216.931 166.326L215.215 163.354L231.725 153.822L233.441 156.794L227.757 160.076L226.891 160.576L227.391 161.442L238.699 181.028L235.154 183.075L223.846 163.489Z" fill="white" stroke="white" stroke-width="2"/>
<path d="M248.862 148.818C248.693 148.832 248.516 148.85 248.33 148.873C247.06 149.027 245.369 149.398 243.821 150.292C242.307 151.166 241.345 152.201 240.934 153.347C240.516 154.516 240.726 155.649 241.257 156.568C242.058 157.956 243.561 158.268 244.923 158.313C245.823 158.343 246.893 158.256 247.957 158.17C248.484 158.127 249.01 158.084 249.513 158.055C252.738 157.873 255.716 158.185 257.521 161.31C259.021 163.909 259.027 165.944 258.36 167.565C257.667 169.246 256.18 170.655 254.373 171.8C252.579 172.937 250.571 173.75 248.993 174.281C248.207 174.545 247.537 174.736 247.065 174.861C247.056 174.864 247.046 174.866 247.036 174.869L245.183 171.658C245.456 171.65 245.753 171.634 246.069 171.608C247.656 171.476 249.765 171.071 251.713 169.947C253.689 168.806 254.478 167.47 254.555 166.187C254.622 165.064 254.112 164.215 253.985 164.004C253.977 163.99 253.97 163.98 253.966 163.972C253.194 162.635 251.686 162.364 250.374 162.317C249.68 162.292 248.924 162.328 248.164 162.373C247.996 162.382 247.828 162.393 247.659 162.403C247.05 162.44 246.434 162.478 245.804 162.497C242.579 162.592 239.518 162.167 237.66 158.949C236.334 156.651 236.348 154.797 236.982 153.272C237.641 151.685 239.031 150.313 240.711 149.173C242.378 148.041 244.238 147.2 245.697 146.639C246.379 146.377 246.966 146.178 247.395 146.042L248.862 148.818Z" fill="white" stroke="white" stroke-width="2"/>
<path d="M801.014 49.7738C801.959 53.6532 799.739 57.1396 796.596 59.387C793.455 61.6335 789.232 62.7677 785.871 61.851L785.853 61.846L785.835 61.8398C785.564 61.7436 785.31 61.6593 785.066 61.5785C784.107 61.2607 783.313 60.9978 782.358 60.286L782.001 60.0197L782.224 59.6343L785.046 54.7705L785.281 54.3645L785.701 54.5739C786.753 55.0981 787.63 55.4245 788.481 55.549C789.317 55.6713 790.156 55.6025 791.137 55.2971C792.433 54.7462 793.508 53.935 794.021 53.0435C794.273 52.6042 794.384 52.1563 794.336 51.7054C794.288 51.2577 794.078 50.7611 793.612 50.2302C793.259 49.8844 792.738 49.6924 792.009 49.6272C791.27 49.5612 790.385 49.6306 789.374 49.748C789.059 49.7847 788.731 49.8261 788.395 49.8686C786.621 50.0928 784.593 50.3494 782.638 50.119C780.262 49.9442 778.098 48.5867 776.65 46.7075C775.201 44.8267 774.432 42.374 774.915 39.9638C775.2 38.2029 776.276 36.425 777.673 35.0917L777.693 35.0724L777.715 35.0555L779.229 33.9048L779.249 33.8891L779.271 33.8757C782.464 31.9328 785.028 31.5936 787.588 32.4363C788.301 32.6122 788.899 32.8856 790.067 33.4858L790.518 33.7176L790.28 34.1653C789.849 34.9755 789.593 35.4557 789.342 35.938C788.975 36.6415 788.616 37.3493 787.734 39.0926L787.474 39.605L787.002 39.2774C785.946 38.5437 784.864 38.3731 783.948 38.5809C783.229 38.7518 782.546 39.1591 782.107 39.6912C781.676 40.2142 781.494 40.834 781.694 41.494L781.698 41.5083L781.701 41.5229C781.793 41.9084 781.982 42.2164 782.586 42.8175C783.092 43.1752 783.814 43.2839 784.758 43.2485C785.23 43.2307 785.733 43.1785 786.263 43.1174C786.372 43.1049 786.482 43.0919 786.593 43.0789C787.012 43.0295 787.446 42.9785 787.876 42.9412C790.917 42.5213 793.214 42.5981 795.008 43.0977C796.82 43.6023 798.093 44.531 799.088 45.7565L799.027 45.8366C800.547 47.7251 800.922 49.3693 801.005 49.7346C801.009 49.75 801.012 49.763 801.014 49.7738ZM801.014 49.7738C801.015 49.7743 801.015 49.7749 801.015 49.7754L800.528 49.8904L801.014 49.7721C801.014 49.7726 801.014 49.7732 801.014 49.7738ZM768.747 41.1023L768.515 40.6124L768.045 40.8835L762.858 43.8779L762.425 44.1279L762.675 44.561C763.966 46.7957 765.245 49.0281 766.526 51.2625L766.528 51.2656C767.809 53.5008 769.092 55.7381 770.386 57.9807C770.721 58.5604 771.052 59.1204 771.369 59.6556C771.838 60.45 772.276 61.1898 772.645 61.8584C772.951 62.4137 773.199 62.9011 773.371 63.3087C773.548 63.7304 773.618 64.0123 773.619 64.1752L773.619 64.1925L773.62 64.2096C773.68 65.0198 773.308 65.6143 772.765 66.0579C772.225 66.4998 771.544 66.763 771.07 66.875C770.065 66.9312 769.345 66.6355 768.335 66.0642L768.329 66.0605L768.322 66.0569C768.231 66.0092 768.159 65.9694 768.091 65.9312C768.044 65.9054 767.999 65.8804 767.95 65.854C767.901 65.8273 767.841 65.7961 767.786 65.7729C767.76 65.762 767.714 65.744 767.66 65.7322C767.633 65.7262 767.588 65.7183 767.532 65.7192C767.48 65.72 767.383 65.7292 767.281 65.7882L767.159 65.8591L767.091 65.9839L764.379 71.0131L764.165 71.4104L764.539 71.664C766.142 72.753 767.988 73.4554 769.891 73.4845L769.891 73.4845C772.697 73.527 775.687 72.3134 778.184 70.0159L778.195 70.0054L778.206 69.9942C779.775 68.3598 780.796 66.2581 780.64 63.9592C780.607 62.4461 780.116 61.0454 779.437 59.673C778.961 58.7102 778.376 57.7316 777.777 56.7304C777.528 56.3147 777.277 55.8951 777.031 55.4711C775.224 52.2988 773.392 49.1401 771.555 45.9723C770.638 44.3908 769.719 42.807 768.802 41.2181L768.747 41.1023ZM724.138 33.4269L778.688 1.93254L810.183 56.4824L755.633 87.9768L724.138 33.4269Z" fill="white" stroke="white"/>
<path d="M408.912 5.26613L408.617 4.63245L408.012 4.98193L357.705 34.0269L357.099 34.3764L357.501 34.9486L391.914 84.0195L392.167 84.3797L392.594 84.2728L416.582 78.2668L416.759 78.2224L416.886 78.091L434.082 60.3196L434.388 60.0034L434.202 59.6045L408.912 5.26613ZM389.994 48.5537L405.031 39.8724L405.545 39.5755L405.287 39.0405L401.876 31.9555L401.577 31.334L400.979 31.6789L378.065 44.9086L374.358 39.4722L404.239 22.2203L410.929 35.6822L410.929 35.6831L420.819 55.5048L410.385 67.1816L395.058 70.3787L389.766 62.2673L395.439 58.9919L397.731 62.6184L397.965 62.9893L398.396 62.9045L406.729 61.2625L406.943 61.2203L407.087 61.0557L412.675 54.6601L412.956 54.3391L412.768 53.9566L408.866 46.0227L408.564 45.4088L407.972 45.7509L393.559 54.0721L389.994 48.5537ZM423.616 30.6018L437.547 60.5348L418.132 80.6008L391.048 87.3812L353.282 33.5312L409.794 0.903709L423.616 30.6018Z" fill="white" stroke="white" stroke-width="1.28"/>
<path d="M26.03 39.9847L41.9713 30.7981L57.9119 21.612L60.3486 26.8806L35.3383 41.2921L34.391 41.838L35.019 42.7329L39.6149 49.2824L40.1403 50.0312L40.9328 49.5744L64.5563 35.9598L73.8861 56.1065L62.9414 67.2237L47.8639 71.1069L41.6848 62.3002L46.714 59.402L49.9267 63.9816L50.3272 64.5525L51.0014 64.374L59.6808 62.0755L59.9726 61.9982L60.16 61.7869L66.4882 55.4479L66.981 54.9542L66.6879 54.3211L62.4299 45.1259L61.9704 44.1336L61.023 44.6798L52.7242 49.4638L52.7242 49.4638L38.4491 57.6918L26.03 39.9847Z" fill="white" stroke="white" stroke-width="2"/>
<path d="M8.74652 34.2632L44.6827 85.4915L69.7499 79.0365L87.9258 60.576L61.6248 3.79212L8.74652 34.2632Z" stroke="white" stroke-width="4" stroke-miterlimit="10"/>
</mask>
<g mask="url(#mask0)">
<rect y="-11.2454" width="832.161" height="576.015" fill="url(#paint0_linear)"/>
</g>
<defs>
<linearGradient id="paint0_linear" x1="70.6147" y1="-3.43388" x2="269.773" y2="659.89" gradientUnits="userSpaceOnUse">
<stop offset="0.151042" stop-color="#D1D0FF"/>
<stop offset="0.671875" stop-color="#6981FF"/>
</linearGradient>
</defs>
</svg>
