<svg width="823" height="553" viewBox="0 0 823 553" fill="none" xmlns="http://www.w3.org/2000/svg">
<mask id="mask0" mask-type="alpha" maskUnits="userSpaceOnUse" x="5" y="0" width="810" height="541">
<mask id="path-1-inside-1" mask-type="luminance" fill="white">
<path d="M764.952 514.633C765.35 514.998 765.702 515.228 765.971 515.261C766.253 515.317 766.575 515.224 766.995 514.982L769.005 513.822C769.428 513.578 769.712 513.32 769.805 513.047C769.898 512.775 769.863 512.389 769.711 511.855L764.615 494.708L776.953 507.705C777.318 508.12 777.656 508.327 777.938 508.383C778.221 508.439 778.566 508.333 779.009 508.077L781.02 506.916C781.418 506.686 781.666 506.418 781.772 506.169C781.879 505.92 781.867 505.52 781.739 504.973L776.936 483.631C776.881 483.319 776.82 483.104 776.762 482.95C776.704 482.796 776.66 482.665 776.592 482.548C776.362 482.149 776.043 482.083 775.668 482.3L773.493 483.556C773.071 483.799 772.823 484.068 772.716 484.317C772.633 484.552 772.645 484.952 772.774 485.499L777.776 503.513L765.029 489.97C764.678 489.579 764.326 489.348 764.057 489.316C763.775 489.26 763.43 489.366 762.987 489.621L761.114 490.703C760.692 490.946 760.421 491.228 760.314 491.477C760.208 491.726 760.243 492.112 760.395 492.646L765.696 510.241L752.822 497.022C752.424 496.658 752.096 496.413 751.827 496.381C751.568 496.312 751.223 496.417 750.78 496.673L748.485 497.998C748.11 498.215 748.044 498.534 748.26 498.909C748.355 499.073 748.602 499.338 749.011 499.722L764.952 514.633ZM790.348 500.53C791.16 500.53 792.246 500.306 793.578 499.912C794.91 499.518 796.208 498.956 797.425 498.254C798.618 497.565 799.622 496.766 800.485 495.831C801.314 494.945 801.94 494.025 802.325 493.021C802.724 492.04 802.883 491.015 802.846 489.977C802.786 488.952 802.469 487.916 801.889 486.91C801.187 485.694 800.2 484.798 798.923 484.257C797.645 483.717 795.996 483.668 794 484.105L790.072 484.97C788.602 485.287 787.481 485.344 786.755 485.169C786.029 484.995 785.474 484.568 785.095 483.912C784.542 482.953 784.524 482.057 784.993 481.196C785.459 480.332 786.394 479.515 787.728 478.745C789.39 477.785 791.064 477.225 792.748 477.062C793.255 477.02 793.611 476.939 793.799 476.831C794.151 476.628 794.189 476.261 793.907 475.772L793.269 474.667C793.079 474.339 792.86 474.121 792.612 474.018C792.35 473.888 792.007 473.836 791.573 473.836C791.258 473.831 790.848 473.88 790.348 473.981C789.844 474.084 789.334 474.222 788.797 474.376C788.251 474.566 787.707 474.755 787.127 474.996C786.571 475.224 786.021 475.51 785.505 475.808C784.476 476.402 783.562 477.086 782.786 477.909C782.013 478.73 781.445 479.586 781.055 480.53C780.653 481.45 780.467 482.429 780.478 483.423C780.488 484.414 780.778 485.404 781.345 486.386C782.047 487.602 783.107 488.518 784.472 489.102C785.851 489.709 787.575 489.777 789.593 489.327L793.592 488.421C794.955 488.135 795.978 488.072 796.657 488.274C797.336 488.475 797.854 488.892 798.233 489.548C798.787 490.507 798.798 491.501 798.3 492.472C797.803 493.447 796.801 494.365 795.33 495.215C794.395 495.755 793.426 496.189 792.383 496.541C791.363 496.88 790.333 497.1 789.337 497.209C789.048 497.251 788.783 497.279 788.615 497.313C788.447 497.348 788.293 497.406 788.153 497.487C787.801 497.69 787.749 498.033 788.031 498.522L788.72 499.715C788.842 499.926 789.024 500.134 789.238 500.288C789.462 500.452 789.853 500.534 790.348 500.53ZM744.146 512.044C743.214 512.426 742.352 512.83 741.558 513.288C739.149 514.68 737.604 516.384 736.879 518.425C736.157 520.464 736.386 522.485 737.533 524.473C738.614 526.346 740.064 527.502 741.86 527.966C743.654 528.427 745.547 528.084 747.511 526.95C750.272 525.356 751.944 522.957 752.526 519.748C753.095 520.139 753.585 520.446 754.047 520.711C754.498 520.951 754.994 521.16 755.523 521.324C755.879 521.4 756.181 521.382 756.413 521.248C756.601 521.14 756.771 520.948 756.901 520.685L757.808 518.852C757.978 518.441 757.983 518.126 757.849 517.894C757.755 517.73 757.599 517.569 757.374 517.449C756.694 517.029 756.136 516.605 755.653 516.195C755.191 515.774 754.693 515.128 754.194 514.263L754.147 514.29L749.769 506.707C748.283 504.133 746.521 502.591 744.501 502.072C742.466 501.566 740.067 502.108 737.282 503.716C735.995 504.459 734.86 505.302 733.89 506.268C732.901 507.21 732.123 508.129 731.548 509.023C731.315 509.377 731.199 509.663 731.174 509.892C731.152 510.123 731.267 510.432 731.484 510.807L732.146 511.953C732.43 512.446 732.728 512.583 733.056 512.393C733.15 512.339 733.254 512.248 733.391 512.106C733.525 511.966 733.754 511.713 734.034 511.332C734.663 510.531 735.358 509.786 736.103 509.079C736.845 508.368 737.635 507.787 738.453 507.315C740.256 506.274 741.722 505.897 742.888 506.189C744.03 506.495 745.121 507.518 746.148 509.298L747.135 511.007C746.078 511.335 745.082 511.661 744.146 512.044ZM748.695 513.6L749.262 514.582C749.72 515.376 750.019 516.111 750.202 516.752C750.386 517.396 750.387 518.048 750.272 518.708C750.044 519.774 749.594 520.722 748.915 521.489C748.236 522.256 747.52 522.857 746.749 523.302C745.674 523.923 744.69 524.116 743.794 523.856C742.882 523.631 742.132 522.974 741.497 521.875C740.822 520.705 740.684 519.601 741.09 518.522C741.495 517.444 742.465 516.478 744.033 515.572C744.757 515.154 745.512 514.781 746.313 514.444C747.115 514.106 747.923 513.827 748.695 513.6ZM811.328 497.153C809.892 496.61 802.147 499.893 799.533 505.522C799.141 506.405 799.632 506.993 800.329 506.466C802.656 504.715 807.801 500.873 809.512 501.57C811.21 502.243 812.141 508.662 812.543 511.518C812.666 512.381 813.439 512.31 813.759 511.41C815.876 505.572 812.777 497.719 811.328 497.153Z"/>
</mask>
<path d="M764.952 514.633C765.35 514.998 765.702 515.228 765.971 515.261C766.253 515.317 766.575 515.224 766.995 514.982L769.005 513.822C769.428 513.578 769.712 513.32 769.805 513.047C769.898 512.775 769.863 512.389 769.711 511.855L764.615 494.708L776.953 507.705C777.318 508.12 777.656 508.327 777.938 508.383C778.221 508.439 778.566 508.333 779.009 508.077L781.02 506.916C781.418 506.686 781.666 506.418 781.772 506.169C781.879 505.92 781.867 505.52 781.739 504.973L776.936 483.631C776.881 483.319 776.82 483.104 776.762 482.95C776.704 482.796 776.66 482.665 776.592 482.548C776.362 482.149 776.043 482.083 775.668 482.3L773.493 483.556C773.071 483.799 772.823 484.068 772.716 484.317C772.633 484.552 772.645 484.952 772.774 485.499L777.776 503.513L765.029 489.97C764.678 489.579 764.326 489.348 764.057 489.316C763.775 489.26 763.43 489.366 762.987 489.621L761.114 490.703C760.692 490.946 760.421 491.228 760.314 491.477C760.208 491.726 760.243 492.112 760.395 492.646L765.696 510.241L752.822 497.022C752.424 496.658 752.096 496.413 751.827 496.381C751.568 496.312 751.223 496.417 750.78 496.673L748.485 497.998C748.11 498.215 748.044 498.534 748.26 498.909C748.355 499.073 748.602 499.338 749.011 499.722L764.952 514.633ZM790.348 500.53C791.16 500.53 792.246 500.306 793.578 499.912C794.91 499.518 796.208 498.956 797.425 498.254C798.618 497.565 799.622 496.766 800.485 495.831C801.314 494.945 801.94 494.025 802.325 493.021C802.724 492.04 802.883 491.015 802.846 489.977C802.786 488.952 802.469 487.916 801.889 486.91C801.187 485.694 800.2 484.798 798.923 484.257C797.645 483.717 795.996 483.668 794 484.105L790.072 484.97C788.602 485.287 787.481 485.344 786.755 485.169C786.029 484.995 785.474 484.568 785.095 483.912C784.542 482.953 784.524 482.057 784.993 481.196C785.459 480.332 786.394 479.515 787.728 478.745C789.39 477.785 791.064 477.225 792.748 477.062C793.255 477.02 793.611 476.939 793.799 476.831C794.151 476.628 794.189 476.261 793.907 475.772L793.269 474.667C793.079 474.339 792.86 474.121 792.612 474.018C792.35 473.888 792.007 473.836 791.573 473.836C791.258 473.831 790.848 473.88 790.348 473.981C789.844 474.084 789.334 474.222 788.797 474.376C788.251 474.566 787.707 474.755 787.127 474.996C786.571 475.224 786.021 475.51 785.505 475.808C784.476 476.402 783.562 477.086 782.786 477.909C782.013 478.73 781.445 479.586 781.055 480.53C780.653 481.45 780.467 482.429 780.478 483.423C780.488 484.414 780.778 485.404 781.345 486.386C782.047 487.602 783.107 488.518 784.472 489.102C785.851 489.709 787.575 489.777 789.593 489.327L793.592 488.421C794.955 488.135 795.978 488.072 796.657 488.274C797.336 488.475 797.854 488.892 798.233 489.548C798.787 490.507 798.798 491.501 798.3 492.472C797.803 493.447 796.801 494.365 795.33 495.215C794.395 495.755 793.426 496.189 792.383 496.541C791.363 496.88 790.333 497.1 789.337 497.209C789.048 497.251 788.783 497.279 788.615 497.313C788.447 497.348 788.293 497.406 788.153 497.487C787.801 497.69 787.749 498.033 788.031 498.522L788.72 499.715C788.842 499.926 789.024 500.134 789.238 500.288C789.462 500.452 789.853 500.534 790.348 500.53ZM744.146 512.044C743.214 512.426 742.352 512.83 741.558 513.288C739.149 514.68 737.604 516.384 736.879 518.425C736.157 520.464 736.386 522.485 737.533 524.473C738.614 526.346 740.064 527.502 741.86 527.966C743.654 528.427 745.547 528.084 747.511 526.95C750.272 525.356 751.944 522.957 752.526 519.748C753.095 520.139 753.585 520.446 754.047 520.711C754.498 520.951 754.994 521.16 755.523 521.324C755.879 521.4 756.181 521.382 756.413 521.248C756.601 521.14 756.771 520.948 756.901 520.685L757.808 518.852C757.978 518.441 757.983 518.126 757.849 517.894C757.755 517.73 757.599 517.569 757.374 517.449C756.694 517.029 756.136 516.605 755.653 516.195C755.191 515.774 754.693 515.128 754.194 514.263L754.147 514.29L749.769 506.707C748.283 504.133 746.521 502.591 744.501 502.072C742.466 501.566 740.067 502.108 737.282 503.716C735.995 504.459 734.86 505.302 733.89 506.268C732.901 507.21 732.123 508.129 731.548 509.023C731.315 509.377 731.199 509.663 731.174 509.892C731.152 510.123 731.267 510.432 731.484 510.807L732.146 511.953C732.43 512.446 732.728 512.583 733.056 512.393C733.15 512.339 733.254 512.248 733.391 512.106C733.525 511.966 733.754 511.713 734.034 511.332C734.663 510.531 735.358 509.786 736.103 509.079C736.845 508.368 737.635 507.787 738.453 507.315C740.256 506.274 741.722 505.897 742.888 506.189C744.03 506.495 745.121 507.518 746.148 509.298L747.135 511.007C746.078 511.335 745.082 511.661 744.146 512.044ZM748.695 513.6L749.262 514.582C749.72 515.376 750.019 516.111 750.202 516.752C750.386 517.396 750.387 518.048 750.272 518.708C750.044 519.774 749.594 520.722 748.915 521.489C748.236 522.256 747.52 522.857 746.749 523.302C745.674 523.923 744.69 524.116 743.794 523.856C742.882 523.631 742.132 522.974 741.497 521.875C740.822 520.705 740.684 519.601 741.09 518.522C741.495 517.444 742.465 516.478 744.033 515.572C744.757 515.154 745.512 514.781 746.313 514.444C747.115 514.106 747.923 513.827 748.695 513.6ZM811.328 497.153C809.892 496.61 802.147 499.893 799.533 505.522C799.141 506.405 799.632 506.993 800.329 506.466C802.656 504.715 807.801 500.873 809.512 501.57C811.21 502.243 812.141 508.662 812.543 511.518C812.666 512.381 813.439 512.31 813.759 511.41C815.876 505.572 812.777 497.719 811.328 497.153Z" fill="white" stroke="white" stroke-width="5.33333" mask="url(#path-1-inside-1)"/>
<path d="M806.767 507.479C802.323 516.945 793.396 525.808 784.274 531.075C772.934 537.622 760.484 540.003 748.544 538.681C760.287 537.803 772.491 534.219 783.508 527.859C791.958 522.98 800.217 515.932 806.767 507.479Z" fill="white" stroke="white" stroke-width="2.66667"/>
<path d="M397.339 519.779L401.831 527.56L401.484 527.76L390.061 507.974L390.316 507.827L391.941 510.642L392.582 511.753L392.862 510.502C392.882 510.414 392.899 510.325 392.915 510.236C392.945 510.616 393.01 510.993 393.11 511.364L393.11 511.364L393.112 511.372C393.43 512.483 393.811 513.575 394.255 514.642L394.717 514.45L394.31 514.741C394.515 515.027 394.702 515.294 394.879 515.546C395.273 516.109 395.613 516.595 395.981 517.045C397.05 518.36 398.287 519.232 399.649 519.605C401.012 519.978 402.453 519.839 403.905 519.214C405.326 518.675 406.517 517.662 407.276 516.345C408.035 515.027 408.315 513.488 408.068 511.988C407.873 510.462 407.356 508.996 406.551 507.685C405.746 506.374 404.672 505.248 403.4 504.383C402.265 503.563 400.895 503.134 399.495 503.16C398.098 503.187 396.747 503.665 395.646 504.523C394.568 505.258 393.745 506.309 393.29 507.531C393.156 507.892 393.056 508.262 392.99 508.638C393.068 507.876 393.294 507.134 393.659 506.454C394.19 505.463 394.992 504.644 395.971 504.093L395.98 504.088L395.989 504.083C398.372 502.611 400.786 502.398 403.126 503.848L403.126 503.848L403.131 503.85C404.654 504.773 405.934 506.046 406.865 507.564C407.796 509.082 408.35 510.801 408.48 512.577L408.481 512.584L408.482 512.592C408.788 515.525 406.893 518.227 403.784 519.433L403.768 519.439L403.752 519.447C402.847 519.871 401.849 520.063 400.851 520.003C399.852 519.943 398.885 519.635 398.036 519.105L397.339 519.779Z" fill="white" stroke="white"/>
<path d="M424.315 489.572C425.663 489.825 426.897 490.494 427.843 491.486C428.6 492.329 429.315 493.208 429.987 494.119L418.121 500.97L417.717 501.203L417.922 501.622C419.658 505.184 423.147 506.971 426.283 506.089L426.286 506.088C428.152 505.547 429.614 504.508 430.507 503.107C431.401 501.703 431.699 499.975 431.306 498.11L431.304 498.101L431.301 498.091C431.204 497.706 431.266 497.586 431.293 497.549C431.313 497.52 431.354 497.482 431.437 497.441C431.903 498.771 431.924 500.222 431.489 501.571C431.008 503.065 430 504.333 428.654 505.139L428.646 505.143L428.639 505.148C426.463 506.555 424.467 506.793 422.746 506.318C421.01 505.839 419.489 504.615 418.322 502.982L418.322 502.982L418.314 502.971C416.999 501.233 416.206 499.157 416.026 496.985C415.915 495.531 416.27 494.08 417.038 492.84C417.806 491.601 418.95 490.638 420.302 490.091L420.314 490.086L420.327 490.08C421.57 489.497 422.965 489.319 424.315 489.572ZM417.325 500.591L417.567 501.051L418.018 500.791L429.053 494.42L429.495 494.165L429.231 493.728C427.055 490.125 423.161 488.68 419.906 490.503C418.115 491.499 416.935 493.027 416.478 494.821C416.021 496.611 416.292 498.626 417.325 500.591Z" fill="white" stroke="white"/>
<path d="M442.287 487.452C441.595 487.589 440.909 487.795 440.222 488.002C439.794 488.13 439.364 488.26 438.933 488.372C438.532 488.475 438.131 488.585 437.731 488.694C436.736 488.966 435.74 489.238 434.727 489.417C434.191 489.517 433.637 489.448 433.142 489.221C432.647 488.994 432.234 488.619 431.96 488.147M442.287 487.452L431.96 488.147M442.287 487.452C443.074 487.287 443.893 487.365 444.635 487.676C445.377 487.986 446.008 488.515 446.443 489.191L442.287 487.452ZM431.96 488.147L431.528 488.399C431.531 488.405 431.535 488.411 431.539 488.417C431.543 488.424 431.547 488.43 431.551 488.435L431.96 488.147ZM441.553 483.261C441.52 483.212 441.487 483.163 441.454 483.116L441.123 483.306L441.297 483.607L441.298 483.61L441.373 483.74L441.806 483.49C441.728 483.353 441.613 483.289 441.553 483.261ZM441.553 483.261C441.549 483.259 441.546 483.258 441.542 483.256C441.511 483.242 441.483 483.233 441.465 483.228C441.447 483.222 441.43 483.218 441.423 483.216C441.417 483.214 441.415 483.214 441.415 483.214C441.415 483.214 441.415 483.214 441.416 483.214C441.418 483.215 441.431 483.218 441.448 483.226C441.474 483.238 441.568 483.282 441.638 483.392C441.641 483.397 441.644 483.403 441.648 483.408L441.643 483.4L441.638 483.392C441.61 483.348 441.582 483.304 441.553 483.261ZM431.553 484.811C431.551 484.814 431.55 484.816 431.548 484.819L431.966 485.093L431.559 484.803C431.557 484.806 431.555 484.809 431.553 484.811ZM442.054 482.769L441.659 482.997C441.726 483.123 441.786 483.254 441.839 483.387L442.304 483.202L442.054 482.769ZM438.023 480.851C438.025 480.851 438.027 480.851 438.028 480.851C438.03 480.851 438.032 480.851 438.034 480.85L438.014 480.351L438.023 480.851ZM433.837 490.185C433.835 490.185 433.832 490.185 433.83 490.186C433.827 490.186 433.825 490.186 433.822 490.186L433.872 490.684L433.837 490.185ZM442.548 488.367C442.546 488.367 442.544 488.368 442.542 488.368C442.54 488.368 442.538 488.369 442.536 488.369L442.632 488.86L442.548 488.367ZM446.024 490.075C446.02 490.065 446.015 490.056 446.01 490.047C446.004 490.038 445.998 490.029 445.993 490.021L445.578 490.301L446.024 490.075ZM445.934 494.028C445.937 494.025 445.939 494.021 445.942 494.017C445.944 494.014 445.946 494.01 445.949 494.007L445.528 493.736L445.934 494.028ZM434.711 495.231C434.797 495.365 434.889 495.495 434.987 495.62L435.381 495.393L435.131 494.96L434.711 495.231ZM434.482 495.338L434.048 495.585L434.048 495.585L434.089 495.657C434.16 495.777 434.234 495.895 434.313 496.009L434.748 495.759C434.653 495.623 434.564 495.483 434.482 495.338ZM437.749 497.871C437.748 497.871 437.747 497.87 437.746 497.87C437.745 497.87 437.743 497.869 437.742 497.869L437.619 498.354L437.749 497.871ZM434.814 489.91C434.815 489.91 434.815 489.909 434.816 489.909C434.817 489.909 434.818 489.909 434.818 489.909L434.727 489.417L434.814 489.91Z" fill="white" stroke="white"/>
<path d="M455.889 474.782L455.641 474.925C455.125 474.101 454.347 473.473 453.431 473.144C452.504 472.811 451.491 472.805 450.56 473.125C448.827 473.562 447.284 474.555 446.167 475.951C445.652 476.492 445.323 477.184 445.229 477.925C445.134 478.673 445.283 479.431 445.653 480.088C446.006 480.748 446.576 481.267 447.267 481.558C447.955 481.847 448.722 481.891 449.438 481.684C450.35 481.477 451.241 481.219 452.119 480.958C452.255 480.917 452.392 480.876 452.528 480.835C453.274 480.612 454.012 480.392 454.762 480.196L454.771 480.194L454.779 480.192C455.331 480.028 455.892 479.898 456.46 479.801L456.46 479.801L456.465 479.8C457.238 479.66 458.035 479.755 458.752 480.075C459.47 480.395 460.074 480.923 460.486 481.592C460.899 482.26 461.1 483.037 461.063 483.822C461.027 484.606 460.754 485.362 460.282 485.989L460.282 485.989L460.274 485.999C459.521 487.052 458.556 487.937 457.44 488.595C456.325 489.254 455.085 489.673 453.799 489.825C452.785 489.943 451.759 489.748 450.86 489.266C450.1 488.859 449.46 488.263 449.001 487.54L449.221 487.413C449.918 488.108 450.758 488.647 451.683 488.993C452.737 489.387 453.87 489.518 454.986 489.375C456.102 489.231 457.165 488.818 458.086 488.171C458.999 487.529 459.744 486.675 460.255 485.682C460.622 485.099 460.816 484.425 460.815 483.736C460.813 483.046 460.617 482.372 460.247 481.79C459.924 481.178 459.412 480.686 458.786 480.387C458.156 480.087 457.446 479.999 456.762 480.137C456.016 480.264 455.287 480.454 454.577 480.647C454.468 480.676 454.359 480.706 454.251 480.736C453.647 480.901 453.059 481.062 452.463 481.19L452.454 481.193L452.444 481.195C450.998 481.567 449.527 481.833 448.042 481.991C447.078 482.05 446.053 481.361 445.421 480.278C444.795 479.203 444.655 477.901 445.278 476.889L445.282 476.882L445.286 476.876C446.005 475.623 447.036 474.577 448.279 473.841C449.52 473.107 450.929 472.705 452.37 472.675C453.163 472.688 453.936 472.931 454.594 473.374C455.132 473.736 455.575 474.219 455.889 474.782Z" fill="white" stroke="white"/>
<path d="M395.25 524.063C395.141 524.108 395.027 524.14 394.91 524.159C394.544 524.218 394.169 524.141 393.855 523.943L393.833 523.929L393.809 523.917C392.172 523.109 390.488 522.378 388.817 521.651C388.11 521.344 387.406 521.038 386.708 520.727L386.708 520.727L386.701 520.724L385.688 520.292L385.074 520.03L384.995 520.693C384.909 521.426 384.819 522.156 384.73 522.883C384.453 525.132 384.18 527.358 384.01 529.579L384.008 529.61L384.01 529.64C384.026 529.988 383.915 530.331 383.698 530.603C383.643 530.672 383.582 530.735 383.517 530.792L384.742 520.36L384.787 519.985L384.437 519.84L375.636 516.194C375.736 516.153 375.841 516.122 375.949 516.102C376.312 516.033 376.687 516.092 377.012 516.269L377.023 516.275L377.034 516.28C378.675 517.067 380.365 517.777 382.074 518.495C382.823 518.809 383.575 519.126 384.328 519.45L384.94 519.714L385.022 519.052C385.108 518.358 385.197 517.668 385.285 516.981C385.536 515.025 385.783 513.096 385.96 511.165L385.963 511.133L385.962 511.1C385.949 510.759 386.062 510.424 386.28 510.161C386.335 510.093 386.397 510.031 386.464 509.976L386.071 513.164C386.071 513.165 386.071 513.165 386.071 513.165C386.024 513.536 385.979 513.905 385.933 514.274C385.758 515.701 385.583 517.117 385.362 518.53C385.312 518.702 385.296 518.882 385.314 519.06C385.334 519.253 385.395 519.44 385.492 519.608C385.589 519.776 385.72 519.922 385.877 520.036C386.02 520.139 386.181 520.214 386.351 520.257C388.685 521.247 391.012 522.245 393.373 523.258C393.996 523.525 394.621 523.793 395.25 524.063Z" fill="white" stroke="white"/>
<path d="M414.706 512.733L414.706 512.734L414.482 512.864L406.259 498.622L406.461 498.505L407.998 501.169L408.921 502.768L408.931 500.921C408.945 498.295 410.193 496.483 412.347 495.051L412.446 495.222C411.773 495.621 411.173 496.133 410.67 496.735C410.054 497.475 409.6 498.335 409.337 499.261C409.073 500.187 409.007 501.157 409.143 502.11C409.277 503.06 409.609 503.971 410.117 504.786L410.121 504.793L410.13 504.808L410.138 504.822L410.147 504.837L410.164 504.866L410.172 504.881L410.181 504.896L410.249 505.014L410.317 505.131L410.325 505.146L410.334 505.161L410.342 505.175L410.351 505.19L410.359 505.205L410.368 505.22L410.376 505.234L410.385 505.249L410.52 505.484L410.529 505.499L410.537 505.514L410.546 505.529L410.554 505.543L410.563 505.558L410.571 505.573L410.58 505.587L410.588 505.602L410.597 505.617L410.605 505.632L410.614 505.646L410.622 505.661L410.631 505.676L410.639 505.691L410.648 505.705L410.656 505.72L410.665 505.735L410.673 505.749L410.682 505.764L410.69 505.779L410.699 505.794L410.707 505.808L410.716 505.823L410.724 505.838L410.733 505.852L410.741 505.867L410.75 505.882L410.758 505.897L410.767 505.911L410.775 505.926L410.784 505.941L410.792 505.955L410.801 505.97L410.809 505.985L410.818 506L410.826 506.014L410.835 506.029L410.843 506.044L410.852 506.058L410.86 506.073L410.869 506.088L410.877 506.103L410.886 506.117L410.894 506.132L410.903 506.147L410.911 506.161L410.92 506.176L410.928 506.191L410.937 506.206L410.945 506.22L410.954 506.235L410.962 506.25L410.971 506.264L410.979 506.279L410.988 506.294L410.996 506.309L411.03 506.367L411.039 506.382L411.047 506.397L411.056 506.412L411.064 506.426L411.073 506.441L411.081 506.456L411.09 506.47L411.098 506.485L411.107 506.5L411.115 506.515L411.124 506.529L411.132 506.544L411.141 506.559L411.149 506.574L411.158 506.588L411.166 506.603L411.175 506.618L411.183 506.632L411.192 506.647L411.2 506.662L411.209 506.677L411.217 506.691L411.226 506.706L411.234 506.721L411.243 506.735L411.251 506.75L411.26 506.765L411.268 506.78L411.277 506.794L411.285 506.809L411.294 506.824L411.302 506.838L411.311 506.853L411.319 506.868L411.328 506.883L411.336 506.897L411.345 506.912L411.353 506.927L411.362 506.941L411.37 506.956L411.379 506.971L411.387 506.986L411.396 507L411.404 507.015L411.413 507.03L411.421 507.044L411.43 507.059L411.438 507.074L411.447 507.089L411.455 507.103L411.464 507.118L411.472 507.133L411.481 507.147L411.489 507.162L411.498 507.177L411.506 507.192L411.515 507.206L411.523 507.221L411.532 507.236L411.54 507.25L411.549 507.265L411.557 507.28L411.566 507.295L411.574 507.309L411.583 507.324L411.591 507.339L411.6 507.353L411.608 507.368L411.617 507.383L411.625 507.398L411.634 507.412L411.642 507.427L411.651 507.442L411.659 507.456L411.668 507.471L411.676 507.486L411.685 507.501L411.693 507.515L411.702 507.53L411.71 507.545L411.719 507.56L411.727 507.574L411.735 507.589L411.744 507.604L411.752 507.618L411.761 507.633L411.769 507.648L411.778 507.663L411.786 507.677L411.795 507.692L411.803 507.707L411.812 507.721L411.82 507.736L411.829 507.751L411.837 507.766L411.846 507.78L411.854 507.795L411.863 507.81L411.871 507.824L411.88 507.839L411.888 507.854L411.897 507.869L411.905 507.883L411.914 507.898L411.922 507.913L411.931 507.927L411.939 507.942L411.948 507.957L411.956 507.972L411.965 507.986L411.973 508.001L411.982 508.016L411.99 508.03L411.999 508.045L412.007 508.06L412.016 508.075L412.024 508.089L412.033 508.104L412.041 508.119L412.05 508.133L412.058 508.148L412.067 508.163L412.075 508.178L412.084 508.192L412.092 508.207L412.101 508.222L412.118 508.251L412.126 508.266L412.135 508.281L412.143 508.295L412.152 508.31L412.16 508.325L412.169 508.339L412.177 508.354L412.186 508.369L412.194 508.384L412.203 508.398L412.211 508.413L412.22 508.428L412.228 508.443L412.237 508.457L412.245 508.472L412.254 508.487L412.262 508.501L412.271 508.516L412.279 508.531L412.288 508.546L412.296 508.56L412.305 508.575L412.313 508.59L412.322 508.604L412.33 508.619L412.339 508.634L412.347 508.649L412.356 508.663L412.364 508.678L412.373 508.693L412.381 508.707L412.39 508.722L412.398 508.737L412.407 508.752L412.415 508.766L412.424 508.781L412.432 508.796L412.441 508.81L412.449 508.825L412.458 508.84L412.466 508.855L412.475 508.869L412.483 508.884L412.492 508.899L412.5 508.913L412.509 508.928L412.517 508.943L412.526 508.958L412.534 508.972L412.543 508.987L412.551 509.002L412.56 509.016L412.568 509.031L412.577 509.046L412.585 509.061L412.594 509.075L412.602 509.09L412.611 509.105L412.619 509.119L412.628 509.134L412.636 509.149L412.645 509.164L412.653 509.178L412.662 509.193L412.67 509.208L412.679 509.222L412.687 509.237L412.696 509.252L412.832 509.487L412.968 509.723L412.976 509.738L412.985 509.752L412.993 509.767L413.001 509.782L413.01 509.796L413.018 509.811L413.027 509.826L413.035 509.841L413.044 509.855L413.052 509.87L413.061 509.885L413.069 509.899L413.078 509.914L413.086 509.929L413.095 509.944L413.103 509.958L413.112 509.973L413.12 509.988L413.129 510.002L413.137 510.017L413.146 510.032L413.154 510.047L413.163 510.061L413.171 510.076L413.205 510.135L413.214 510.15L413.222 510.164L413.231 510.179L413.239 510.194L413.248 510.209L413.256 510.223L413.265 510.238L413.273 510.253L413.282 510.267L413.29 510.282L413.299 510.297L413.307 510.312L413.316 510.326L413.324 510.341L413.333 510.356L413.341 510.37L413.35 510.385L413.358 510.4L413.367 510.415L413.375 510.429L413.384 510.444L413.392 510.459L413.401 510.473L413.409 510.488L413.418 510.503L413.426 510.518L413.435 510.532L413.443 510.547L413.452 510.562L413.46 510.576L413.469 510.591L413.477 510.606L413.486 510.621L413.494 510.635L413.503 510.65L413.511 510.665L413.52 510.679L413.528 510.694L413.537 510.709L413.545 510.724L413.579 510.782L413.588 510.797L413.596 510.812L413.605 510.827L413.613 510.841L413.622 510.856L413.63 510.871L413.639 510.885L413.647 510.9L413.656 510.915L413.664 510.93L413.673 510.944L413.681 510.959L413.69 510.974L413.698 510.988L413.707 511.003L413.715 511.018L413.724 511.033L413.732 511.047L413.741 511.062L413.749 511.077L413.758 511.091L413.766 511.106L413.775 511.121L413.783 511.136L413.919 511.371L414.055 511.607L414.064 511.621L414.072 511.636L414.081 511.651L414.089 511.665L414.098 511.68L414.106 511.695L414.115 511.71L414.123 511.724L414.132 511.739L414.14 511.754L414.149 511.768L414.157 511.783L414.166 511.798L414.174 511.813L414.183 511.827L414.191 511.842L414.2 511.857L414.208 511.871L414.217 511.886L414.225 511.901L414.234 511.916L414.242 511.93L414.251 511.945L414.259 511.96L414.267 511.974L414.276 511.989L414.284 512.004L414.293 512.019L414.301 512.033L414.31 512.048L414.318 512.063L414.327 512.078L414.335 512.092L414.344 512.107L414.352 512.122L414.361 512.136L414.369 512.151L414.378 512.166L414.386 512.181L414.395 512.195L414.403 512.21L414.412 512.225L414.42 512.239L414.429 512.254L414.437 512.269L414.446 512.284L414.454 512.298L414.463 512.313L414.464 512.315L414.465 512.316L414.466 512.318L414.467 512.319L414.467 512.321L414.468 512.322L414.469 512.324L414.47 512.325L414.471 512.327L414.472 512.329L414.473 512.33L414.474 512.332L414.475 512.333L414.476 512.335L414.476 512.336L414.477 512.338L414.478 512.34L414.479 512.341L414.48 512.343L414.481 512.344L414.482 512.346L414.483 512.347L414.484 512.349L414.485 512.351L414.485 512.352L414.486 512.354L414.487 512.355L414.488 512.357L414.489 512.358L414.49 512.36L414.491 512.361L414.492 512.363L414.493 512.365L414.494 512.366L414.495 512.368L414.495 512.369L414.496 512.371L414.497 512.372L414.498 512.374L414.499 512.376L414.5 512.377L414.501 512.379L414.502 512.38L414.503 512.382L414.504 512.383L414.504 512.385L414.505 512.387L414.506 512.388L414.507 512.39L414.508 512.391L414.509 512.393L414.51 512.394L414.511 512.396L414.512 512.397L414.513 512.399L414.514 512.401L414.514 512.402L414.515 512.404L414.516 512.405L414.517 512.407L414.518 512.408L414.519 512.41L414.52 512.412L414.521 512.413L414.522 512.415L414.523 512.416L414.523 512.418L414.524 512.419L414.525 512.421L414.526 512.423L414.527 512.424L414.528 512.426L414.529 512.427L414.53 512.429L414.531 512.43L414.532 512.432L414.533 512.434L414.533 512.435L414.534 512.437L414.535 512.438L414.536 512.44L414.537 512.441L414.538 512.443L414.539 512.445L414.54 512.446L414.541 512.448L414.542 512.449L414.543 512.451L414.543 512.452L414.544 512.454L414.545 512.456L414.546 512.457L414.547 512.459L414.548 512.46L414.549 512.462L414.55 512.463L414.551 512.465L414.552 512.467L414.553 512.468L414.553 512.47L414.554 512.471L414.555 512.473L414.556 512.475L414.557 512.476L414.558 512.478L414.559 512.479L414.56 512.481L414.561 512.482L414.562 512.484L414.563 512.486L414.563 512.487L414.564 512.489L414.565 512.49L414.566 512.492L414.567 512.493L414.568 512.495L414.569 512.497L414.57 512.498L414.571 512.5L414.572 512.501L414.573 512.503L414.573 512.505L414.574 512.506L414.575 512.508L414.576 512.509L414.577 512.511L414.578 512.512L414.579 512.514L414.58 512.516L414.581 512.517L414.582 512.519L414.583 512.52L414.584 512.522L414.584 512.524L414.585 512.525L414.586 512.527L414.587 512.528L414.588 512.53L414.589 512.531L414.59 512.533L414.591 512.535L414.592 512.536L414.593 512.538L414.594 512.539L414.595 512.541L414.595 512.543L414.596 512.544L414.597 512.546L414.598 512.547L414.599 512.549L414.6 512.551L414.601 512.552L414.602 512.554L414.603 512.555L414.604 512.557L414.605 512.558L414.606 512.56L414.606 512.562L414.607 512.563L414.608 512.565L414.609 512.566L414.61 512.568L414.611 512.57L414.612 512.571L414.613 512.573L414.614 512.574L414.615 512.576L414.616 512.578L414.617 512.579L414.618 512.581L414.618 512.582L414.619 512.584L414.62 512.586L414.621 512.587L414.622 512.589L414.623 512.59L414.624 512.592L414.625 512.594L414.626 512.595L414.627 512.597L414.628 512.598L414.629 512.6L414.63 512.602L414.63 512.603L414.631 512.605L414.632 512.606L414.633 512.608L414.634 512.61L414.635 512.611L414.636 512.613L414.637 512.614L414.638 512.616L414.639 512.618L414.64 512.619L414.641 512.621L414.642 512.623L414.643 512.624L414.643 512.626L414.644 512.627L414.645 512.629L414.646 512.631L414.647 512.632L414.648 512.634L414.649 512.635L414.65 512.637L414.651 512.639L414.652 512.64L414.653 512.642L414.654 512.643L414.655 512.645L414.656 512.647L414.657 512.648L414.657 512.65L414.658 512.652L414.659 512.653L414.66 512.655L414.661 512.656L414.662 512.658L414.663 512.66L414.664 512.661L414.665 512.663L414.666 512.665L414.667 512.666L414.668 512.668L414.669 512.669L414.67 512.671L414.671 512.673L414.672 512.674L414.672 512.676L414.673 512.678L414.674 512.679L414.675 512.681L414.676 512.682L414.677 512.684L414.678 512.686L414.679 512.687L414.68 512.689L414.681 512.691L414.682 512.692L414.683 512.694L414.684 512.695L414.685 512.697L414.686 512.699L414.687 512.7L414.688 512.702L414.688 512.704L414.689 512.705L414.69 512.707L414.691 512.709L414.692 512.71L414.693 512.712L414.694 512.713L414.695 512.715L414.696 512.717L414.697 512.718L414.698 512.72L414.699 512.722L414.7 512.723L414.701 512.725L414.702 512.727L414.703 512.728L414.704 512.73L414.705 512.732L414.706 512.733Z" fill="white" stroke="white"/>
<path d="M363.765 528.989L363.765 528.988C362.455 523.845 366.459 519.154 371.447 519.868L371.447 519.868C374.212 520.264 375.995 522.019 377.388 524.508L365.607 531.309L365.191 531.549L365.414 531.974C366.772 534.565 368.839 536.156 371.101 536.524C373.371 536.893 375.736 536.014 377.638 533.867L377.638 533.867L377.645 533.859C378.275 533.116 378.71 532.229 378.911 531.276C379.111 530.329 379.074 529.348 378.802 528.419C378.716 528.029 378.773 527.895 378.808 527.845C378.832 527.812 378.878 527.768 378.973 527.721C379.246 528.525 379.362 529.375 379.315 530.226C379.259 531.226 378.978 532.201 378.492 533.078C377.639 534.475 376.367 535.568 374.857 536.2C373.35 536.83 371.684 536.971 370.093 536.601C368.414 536.039 366.963 534.947 365.958 533.489C365.855 533.316 365.728 533.172 365.617 533.057C365.555 532.993 365.508 532.946 365.465 532.903C365.423 532.862 365.387 532.826 365.346 532.783C365.1 532.366 364.86 531.957 364.628 531.555C364.522 531.233 364.409 530.925 364.298 530.622C364.099 530.078 363.907 529.551 363.765 528.989ZM364.993 531.106L365.251 531.276L365.519 531.122L376.554 524.75L376.996 524.495L376.732 524.059C374.53 520.411 370.593 519.029 367.329 520.879C365.555 521.871 364.396 523.396 363.953 525.182C363.51 526.963 363.788 528.965 364.81 530.91L364.87 531.024L364.977 531.095L364.993 531.106Z" fill="white" stroke="white"/>
<path d="M94.6545 488.815L94.0192 489.233L94.0552 489.992C94.4312 497.924 92.9549 505.687 88.8823 512.912C84.8082 520.139 78.0904 526.907 67.8587 532.773C61.3995 536.476 54.3198 538.038 47.8546 536.861C41.4291 535.692 35.4773 531.796 31.2286 524.312L31.2261 524.308C31.0317 523.968 30.5386 522.886 30.3805 521.767C30.2188 520.621 30.4512 519.932 31.0098 519.575L74.8647 494.255L74.951 494.205L75.0289 494.143L74.198 493.1C75.0289 494.143 75.029 494.143 75.0291 494.143L75.0295 494.142L75.0306 494.142L75.0341 494.139L75.0461 494.129L75.0896 494.094C75.127 494.064 75.1808 494.02 75.2487 493.964C75.3845 493.853 75.5773 493.692 75.8088 493.494C76.2704 493.099 76.8926 492.549 77.5268 491.934C78.1563 491.324 78.8226 490.626 79.3581 489.936C79.8495 489.303 80.3992 488.47 80.5177 487.619L80.6227 486.866L80.0278 486.392C79.5379 486.002 78.1862 484.854 76.9566 483.183C75.7213 481.504 74.685 479.401 74.6482 477.074L74.6482 477.072C74.6325 476.168 74.8308 474.981 75.1704 473.924C75.3383 473.402 75.5295 472.947 75.7224 472.599C75.919 472.244 76.0652 472.095 76.1135 472.056C76.1171 472.056 76.2147 472.004 76.4747 471.961C76.7539 471.914 77.1329 471.89 77.6024 471.906C78.5399 471.939 79.7293 472.127 80.9957 472.499C83.5616 473.251 86.1929 474.678 87.7006 476.769L88.3266 477.637L89.3097 477.213C92.1105 476.006 94.9609 475.486 97.1639 475.474C98.2701 475.468 99.1561 475.59 99.7677 475.781C100.331 475.957 100.464 476.124 100.469 476.123C100.811 476.922 101.028 477.998 100.175 480.957L100.175 480.958C99.4286 483.557 98.2842 486.429 94.6545 488.815ZM37.0701 522.881L36.4047 521.726L35.4113 522.298L35.828 523.366C36.4862 525.053 37.9406 526.568 39.2378 527.687C40.5701 528.836 41.9127 529.714 42.5591 530.104L43.1431 530.455L43.7701 530.188C47.3842 528.647 50.7404 526.389 53.1841 524.532C55.6128 522.686 57.2617 521.134 57.2286 521.162L57.2357 521.156L57.2427 521.15C57.8974 520.585 58.8846 520.658 59.4484 521.311L59.4488 521.311C60.0092 521.96 59.9388 522.949 59.2828 523.515L59.2652 523.53L59.2483 523.546L59.2482 523.546L59.2481 523.546L59.248 523.546L59.2467 523.547L59.2396 523.554L59.2083 523.583C59.1799 523.609 59.1365 523.648 59.0789 523.7C58.9637 523.804 58.7916 523.957 58.5681 524.152C58.1209 524.542 57.4687 525.098 56.6553 525.755C55.0259 527.071 52.7622 528.781 50.2132 530.373L47.102 532.316L50.7347 532.825C55.7665 533.529 61.1049 531.272 65.5408 528.841C76.7927 522.678 83.0048 513.598 86.3334 505.639C87.9966 501.663 88.9441 497.958 89.4452 495.018C89.9385 492.123 90.0165 489.864 89.8659 488.8C89.7744 488.147 90.1043 487.505 90.6888 487.2L90.6923 487.198C92.8942 486.037 94.5139 484.584 95.5895 483.257C96.1262 482.595 96.5391 481.949 96.8213 481.369C97.0789 480.84 97.3077 480.206 97.2836 479.614L97.2176 477.997L95.6425 478.372C95.4573 478.416 95.2656 478.46 95.0667 478.505C93.7775 478.8 92.1839 479.164 90.0906 480.13L90.09 480.13C89.5824 480.365 88.8287 480.513 88.1042 480.47C87.3503 480.425 86.9052 480.196 86.7226 479.983L86.7202 479.98C85.76 478.865 84.4063 477.996 83.1794 477.36C81.9332 476.714 80.7105 476.253 79.9189 475.992L78.2009 475.425L78.1679 477.234C78.1477 478.338 78.5794 479.424 79.0908 480.341C79.6151 481.282 80.3026 482.184 80.9656 482.956C81.6327 483.732 82.301 484.405 82.8079 484.887C83.062 485.129 83.2785 485.326 83.4378 485.466C83.5171 485.536 83.5845 485.594 83.6369 485.638C83.6626 485.66 83.6887 485.681 83.713 485.701C83.7247 485.71 83.7414 485.723 83.7605 485.738C83.7699 485.745 83.785 485.756 83.8034 485.769C83.8152 485.777 83.8577 485.806 83.9147 485.838L83.9188 485.841C84.1698 485.981 84.3958 486.287 84.5038 486.804C84.6139 487.331 84.548 487.851 84.4414 488.118L84.4414 488.118C84.3674 488.304 84.2871 488.538 84.1929 488.812C83.5082 490.804 82.0935 494.919 77.0746 498.248L77.0722 498.249C77.0729 498.249 76.9277 498.336 76.5718 498.545C76.2443 498.737 75.7817 499.006 75.2027 499.342C74.0449 500.015 72.4262 500.952 70.5013 502.065C66.6516 504.29 61.58 507.216 56.5284 510.129C51.477 513.042 46.4461 515.941 42.678 518.112C40.7939 519.197 39.2256 520.101 38.1283 520.733L36.855 521.466L36.5197 521.659L36.4338 521.709L36.412 521.721L36.4066 521.724L36.4052 521.725C36.4049 521.725 36.4047 521.726 37.0701 522.881Z" fill="white" stroke="white" stroke-width="2.66667"/>
<path d="M50.0569 491.888L57.1356 487.801L61.2225 494.88L54.1438 498.967L50.0569 491.888ZM62.5744 484.661L69.6531 480.574L73.74 487.653L66.6613 491.74L62.5744 484.661ZM25.0218 506.342L32.1006 502.255L36.1875 509.334L29.1087 513.421L25.0218 506.342ZM37.5394 499.115L44.6181 495.028L48.705 502.107L41.6263 506.194L37.5394 499.115ZM87.2938 496.517C87.5653 496.122 87.8025 495.733 87.9949 495.365C88.454 495.378 88.908 495.364 89.3556 495.327L87.2938 496.517ZM75.5552 502.711C75.8604 502.745 76.162 502.766 76.4597 502.772L75.1508 503.528C75.3025 503.262 75.4383 502.989 75.5552 502.711ZM63.1304 510.002C63.3749 510.027 63.6222 510.039 63.8709 510.041L62.7408 510.693C62.8526 510.523 62.954 510.352 63.0431 510.18C63.0729 510.122 63.1021 510.063 63.1304 510.002ZM50.6583 517.669C50.7143 517.537 50.765 517.403 50.8092 517.267C50.9905 517.275 51.1732 517.274 51.3567 517.266L50.6583 517.669ZM55.3474 472.143L62.4261 468.056L66.513 475.135L59.4343 479.222L55.3474 472.143ZM42.8299 479.37L49.9086 475.283L53.9955 482.362L46.9168 486.449L42.8299 479.37ZM30.3124 486.597L37.3911 482.51L41.478 489.589L34.3993 493.676L30.3124 486.597ZM48.1204 459.626L55.1991 455.539L59.286 462.618L52.2073 466.705L48.1204 459.626Z" fill="white" stroke="white" stroke-width="2.66667"/>
<path d="M229.588 356.23L230.903 376.451C230.709 376.497 230.516 376.549 230.323 376.608L209.459 358.274L242.16 339.394L247.621 366.726C247.49 366.858 247.363 366.992 247.24 367.13L230.366 355.783L229.522 355.215L229.588 356.23ZM259.652 399.289L259.641 399.296L259.63 399.304C253.412 403.901 249.143 410.231 245.291 415.941C244.427 417.222 243.583 418.473 242.744 419.666C238.124 426.227 233.667 430.982 226.485 430.346C222.188 429.669 219.105 427.34 217.025 423.568C214.975 419.851 213.895 414.721 213.648 408.379C214.178 408.278 214.704 408.133 215.221 407.942C217.215 414.668 223.522 416.885 228.496 416.433L228.691 416.416L228.822 416.27C233.549 411.016 236.534 404.351 237.178 395.274C240.109 393.874 241.969 391.686 242.765 389.193C243.538 386.772 243.295 384.103 242.115 381.651L246.345 379.209C248.046 381.843 251.155 383.552 254.396 383.684C257.693 383.817 261.12 382.318 263.368 378.552C267.212 381.731 268.4 385.409 267.682 388.96C266.928 392.688 264.053 396.388 259.652 399.289ZM207.22 395.977C209.232 392.492 214.292 392.492 216.304 395.977C218.316 399.462 215.786 403.844 211.762 403.844C207.738 403.844 205.208 399.462 207.22 395.977ZM228.7 383.512C230.712 380.028 235.772 380.028 237.784 383.513C239.796 386.998 237.266 391.38 233.242 391.38C229.219 391.38 226.688 386.997 228.7 383.512ZM250.127 371.142C252.139 367.657 257.198 367.657 259.211 371.142C261.223 374.627 258.693 379.009 254.669 379.009C250.645 379.009 248.115 374.627 250.127 371.142Z" fill="white" stroke="white"/>
<path d="M549.21 373.76L569.893 361.819L573.298 374.311L555.47 384.604L549.21 373.76ZM584.004 368.13L580.599 355.638L604.577 341.794L610.837 352.638L584.004 368.13ZM597.984 419.423L594.579 406.931L630.283 386.318L636.543 397.161L597.984 419.423ZM580.288 399.957L568.323 406.865L562.063 396.022L576.884 387.465L580.288 399.957ZM587.589 381.285L617.43 364.056L623.69 374.899L590.994 393.776L587.589 381.285ZM587.278 425.604L581.176 429.127L574.916 418.284L583.874 413.112L587.278 425.604Z" fill="white" stroke="white"/>
<mask id="path-14-inside-2" mask-type="luminance" fill="white">
<path d="M797.706 256.134C794.981 257.725 792.994 259.75 791.573 261.874C790.01 260.847 788.541 259.995 787.869 259.118C787.087 258.096 786.539 257.53 785.951 256.113C785.364 254.696 785.05 252.39 784.959 252.256C784.868 252.121 784.321 251.542 782.737 252.443C781.153 253.344 779.988 254.435 780.069 254.944C780.15 255.454 780.387 256.565 780.763 257.652C781.31 259.24 781.385 265.996 781.294 269.604C780.159 268.873 779.175 268.215 778.663 267.546C777.881 266.523 777.333 265.958 776.745 264.541C776.157 263.124 775.843 260.818 775.753 260.684C775.662 260.549 775.114 259.97 773.531 260.871C771.947 261.772 770.781 262.863 770.862 263.372C770.944 263.882 771.335 264.951 771.556 266.08C771.777 267.209 772.869 277.916 773.144 280.696C773.283 282.112 773.361 283.271 773.403 284.068L773.398 284.066C773.398 284.066 773.403 284.12 773.41 284.207C773.446 284.887 773.454 285.269 773.454 285.269C773.454 285.269 773.459 285.27 773.462 285.277C773.473 285.784 773.451 286.274 773.337 286.34C773.259 286.386 772.508 285.454 771.969 283.887C770.833 280.609 769.543 275.22 769.436 275.073C769.382 274.995 769.18 274.042 767.795 274.286C766.448 274.52 766.441 275.428 766.342 275.489C766.246 275.549 766.309 275.831 766.309 275.831C766.309 275.831 764.56 269.941 760.957 272.021C758.705 273.322 757.007 277.588 756.758 280.71C756.091 281.799 754.669 284.133 753.167 286.613C752.588 287.569 752.001 288.539 751.441 289.466C751.349 289.436 751.258 289.406 751.164 289.378C744.103 287.238 734.12 288.607 730.845 282.142C729.653 279.792 726.981 273.335 737.383 257.626C745.905 244.759 756.431 240.869 760.183 243.55C765.546 247.379 763.637 261.353 752.018 269.918C747.591 273.183 744.04 272.785 743.027 272.461C741.959 272.117 741.842 272.141 741.677 272.419C741.405 272.867 742.023 273.358 742.388 273.652C743.317 274.402 745.828 275.235 748.915 274.587C751.63 274.02 757.426 271.221 762.646 264.743C768.493 257.484 769.696 245.991 764.058 240.217C758.325 234.346 745.604 238.673 737.011 248.751C731.9 254.732 727.009 262.338 724.708 269.909C721.971 278.91 723.818 284.308 725.378 286.107C730.92 292.498 743.54 291.459 749.516 292.638C749.382 292.859 749.258 293.065 749.143 293.258C747.72 295.392 742.445 303.711 742.967 308.983C743.559 314.962 748.01 316.926 749.919 316.437C755.837 314.911 759.596 309.337 759.986 303.522C760.376 297.706 756.88 292.442 754.151 290.697C754.118 290.677 754.082 290.654 754.049 290.634C754.389 290.033 754.732 289.422 755.077 288.814C755.748 287.636 756.421 286.504 757.011 285.537C757.292 287.14 757.852 288.93 758.992 291.327C760.332 294.136 763.446 296.977 765.677 297.514C766.661 297.75 767.432 297.323 767.918 297.042C769.597 296.073 769.557 294.235 769.447 292.095C769.31 289.47 768.869 286.582 768.869 286.582C768.869 286.582 771.398 293.62 774.538 291.808C775.682 291.147 775.976 288.999 776.052 287.947C776.057 287.957 776.062 287.958 776.062 287.958C776.062 287.958 776.063 287.892 776.066 287.76C776.078 287.51 776.08 287.356 776.08 287.356C776.08 287.356 776.076 287.342 776.068 287.32C776.066 286.256 776.037 283.847 775.832 279.962C775.568 274.941 774.657 268.989 774.657 268.989C774.657 268.989 775.519 270.074 777.231 271.707C778.236 272.665 779.698 273.526 780.973 274.424C780.88 275.325 780.811 275.852 780.811 275.852C780.811 275.852 780.818 275.857 780.829 275.868C780.744 276.565 780.636 277.327 780.501 278.087C780.016 280.846 779.381 284.038 779.487 284.794C779.61 285.684 779.985 286.176 780.799 286.275C781.394 286.349 782.157 285.97 782.898 285.476C784.246 284.572 785.029 283.655 785.397 283.164C786.003 282.458 786.642 281.524 787.118 280.436C787.997 278.428 787.99 276.285 786.673 274.207C785.946 273.061 784.899 272.114 783.792 271.288C783.818 271.008 783.838 270.727 783.86 270.441C784.237 265.523 783.871 260.566 783.871 260.566C783.871 260.566 784.732 261.651 786.444 263.284C787.312 264.109 788.512 264.863 789.648 265.625C788.442 268.777 788.274 271.731 788.596 273.418C789.193 276.538 790.58 277.307 792.061 276.808C792.731 276.582 793.424 275.817 793.903 275.18C794.546 274.456 795.246 273.47 795.761 272.298C796.641 270.291 797.202 267.867 795.883 265.785C795.283 264.836 794.464 264.027 793.57 263.308C795.031 261.395 797.263 259.516 800.645 258.054C807.905 254.923 811.69 258.398 812.461 260.322C813.233 262.246 812.37 264.049 812.063 264.617C811.756 265.185 811.67 265.374 811.835 265.57C812.078 265.856 812.289 265.717 812.657 265.413C813.163 264.994 815.394 261.907 813.628 258.548C811.384 254.284 804.752 252.014 797.706 256.134ZM755.483 304.074C754.65 307.833 752.04 310.578 750.238 310.575C748.293 310.572 746.781 306.62 748.04 302.415C748.809 299.854 750.138 297.135 751.061 295.398C751.276 295.009 751.591 294.44 751.976 293.752C752.042 293.64 752.08 293.579 752.08 293.579L752.075 293.577C752.15 293.443 752.225 293.309 752.304 293.167C755.45 296.298 756.358 300.13 755.483 304.074ZM765.455 283.44C765.774 285.808 766.96 291.648 765.806 291.962C764.819 292.232 762.149 288.813 761.242 284.455C760.788 282.261 760.813 279.308 761.086 278.011C761.521 275.926 762.614 274.694 763.265 275.062C764.098 275.533 765.256 281.959 765.455 283.44ZM782.749 282.085C782.516 282.45 782.273 282.738 782.084 282.734C781.944 282.732 782.054 282.364 782.054 282.364C782.054 282.364 782.695 279.56 782.885 278.346C782.995 277.639 783.113 276.805 783.235 275.879C783.276 275.942 783.315 276.002 783.35 276.064C784.608 278.251 783.348 280.947 782.749 282.085ZM791.819 273.67C791.47 273.637 791.183 273.042 790.972 270.795C790.888 269.912 790.941 268.317 791.563 266.458C791.977 266.836 792.323 267.224 792.559 267.64C794.131 270.401 792.761 272.561 791.819 273.67Z"/>
</mask>
<path d="M797.706 256.134C794.981 257.725 792.994 259.75 791.573 261.874C790.01 260.847 788.541 259.995 787.869 259.118C787.087 258.096 786.539 257.53 785.951 256.113C785.364 254.696 785.05 252.39 784.959 252.256C784.868 252.121 784.321 251.542 782.737 252.443C781.153 253.344 779.988 254.435 780.069 254.944C780.15 255.454 780.387 256.565 780.763 257.652C781.31 259.24 781.385 265.996 781.294 269.604C780.159 268.873 779.175 268.215 778.663 267.546C777.881 266.523 777.333 265.958 776.745 264.541C776.157 263.124 775.843 260.818 775.753 260.684C775.662 260.549 775.114 259.97 773.531 260.871C771.947 261.772 770.781 262.863 770.862 263.372C770.944 263.882 771.335 264.951 771.556 266.08C771.777 267.209 772.869 277.916 773.144 280.696C773.283 282.112 773.361 283.271 773.403 284.068L773.398 284.066C773.398 284.066 773.403 284.12 773.41 284.207C773.446 284.887 773.454 285.269 773.454 285.269C773.454 285.269 773.459 285.27 773.462 285.277C773.473 285.784 773.451 286.274 773.337 286.34C773.259 286.386 772.508 285.454 771.969 283.887C770.833 280.609 769.543 275.22 769.436 275.073C769.382 274.995 769.18 274.042 767.795 274.286C766.448 274.52 766.441 275.428 766.342 275.489C766.246 275.549 766.309 275.831 766.309 275.831C766.309 275.831 764.56 269.941 760.957 272.021C758.705 273.322 757.007 277.588 756.758 280.71C756.091 281.799 754.669 284.133 753.167 286.613C752.588 287.569 752.001 288.539 751.441 289.466C751.349 289.436 751.258 289.406 751.164 289.378C744.103 287.238 734.12 288.607 730.845 282.142C729.653 279.792 726.981 273.335 737.383 257.626C745.905 244.759 756.431 240.869 760.183 243.55C765.546 247.379 763.637 261.353 752.018 269.918C747.591 273.183 744.04 272.785 743.027 272.461C741.959 272.117 741.842 272.141 741.677 272.419C741.405 272.867 742.023 273.358 742.388 273.652C743.317 274.402 745.828 275.235 748.915 274.587C751.63 274.02 757.426 271.221 762.646 264.743C768.493 257.484 769.696 245.991 764.058 240.217C758.325 234.346 745.604 238.673 737.011 248.751C731.9 254.732 727.009 262.338 724.708 269.909C721.971 278.91 723.818 284.308 725.378 286.107C730.92 292.498 743.54 291.459 749.516 292.638C749.382 292.859 749.258 293.065 749.143 293.258C747.72 295.392 742.445 303.711 742.967 308.983C743.559 314.962 748.01 316.926 749.919 316.437C755.837 314.911 759.596 309.337 759.986 303.522C760.376 297.706 756.88 292.442 754.151 290.697C754.118 290.677 754.082 290.654 754.049 290.634C754.389 290.033 754.732 289.422 755.077 288.814C755.748 287.636 756.421 286.504 757.011 285.537C757.292 287.14 757.852 288.93 758.992 291.327C760.332 294.136 763.446 296.977 765.677 297.514C766.661 297.75 767.432 297.323 767.918 297.042C769.597 296.073 769.557 294.235 769.447 292.095C769.31 289.47 768.869 286.582 768.869 286.582C768.869 286.582 771.398 293.62 774.538 291.808C775.682 291.147 775.976 288.999 776.052 287.947C776.057 287.957 776.062 287.958 776.062 287.958C776.062 287.958 776.063 287.892 776.066 287.76C776.078 287.51 776.08 287.356 776.08 287.356C776.08 287.356 776.076 287.342 776.068 287.32C776.066 286.256 776.037 283.847 775.832 279.962C775.568 274.941 774.657 268.989 774.657 268.989C774.657 268.989 775.519 270.074 777.231 271.707C778.236 272.665 779.698 273.526 780.973 274.424C780.88 275.325 780.811 275.852 780.811 275.852C780.811 275.852 780.818 275.857 780.829 275.868C780.744 276.565 780.636 277.327 780.501 278.087C780.016 280.846 779.381 284.038 779.487 284.794C779.61 285.684 779.985 286.176 780.799 286.275C781.394 286.349 782.157 285.97 782.898 285.476C784.246 284.572 785.029 283.655 785.397 283.164C786.003 282.458 786.642 281.524 787.118 280.436C787.997 278.428 787.99 276.285 786.673 274.207C785.946 273.061 784.899 272.114 783.792 271.288C783.818 271.008 783.838 270.727 783.86 270.441C784.237 265.523 783.871 260.566 783.871 260.566C783.871 260.566 784.732 261.651 786.444 263.284C787.312 264.109 788.512 264.863 789.648 265.625C788.442 268.777 788.274 271.731 788.596 273.418C789.193 276.538 790.58 277.307 792.061 276.808C792.731 276.582 793.424 275.817 793.903 275.18C794.546 274.456 795.246 273.47 795.761 272.298C796.641 270.291 797.202 267.867 795.883 265.785C795.283 264.836 794.464 264.027 793.57 263.308C795.031 261.395 797.263 259.516 800.645 258.054C807.905 254.923 811.69 258.398 812.461 260.322C813.233 262.246 812.37 264.049 812.063 264.617C811.756 265.185 811.67 265.374 811.835 265.57C812.078 265.856 812.289 265.717 812.657 265.413C813.163 264.994 815.394 261.907 813.628 258.548C811.384 254.284 804.752 252.014 797.706 256.134ZM755.483 304.074C754.65 307.833 752.04 310.578 750.238 310.575C748.293 310.572 746.781 306.62 748.04 302.415C748.809 299.854 750.138 297.135 751.061 295.398C751.276 295.009 751.591 294.44 751.976 293.752C752.042 293.64 752.08 293.579 752.08 293.579L752.075 293.577C752.15 293.443 752.225 293.309 752.304 293.167C755.45 296.298 756.358 300.13 755.483 304.074ZM765.455 283.44C765.774 285.808 766.96 291.648 765.806 291.962C764.819 292.232 762.149 288.813 761.242 284.455C760.788 282.261 760.813 279.308 761.086 278.011C761.521 275.926 762.614 274.694 763.265 275.062C764.098 275.533 765.256 281.959 765.455 283.44ZM782.749 282.085C782.516 282.45 782.273 282.738 782.084 282.734C781.944 282.732 782.054 282.364 782.054 282.364C782.054 282.364 782.695 279.56 782.885 278.346C782.995 277.639 783.113 276.805 783.235 275.879C783.276 275.942 783.315 276.002 783.35 276.064C784.608 278.251 783.348 280.947 782.749 282.085ZM791.819 273.67C791.47 273.637 791.183 273.042 790.972 270.795C790.888 269.912 790.941 268.317 791.563 266.458C791.977 266.836 792.323 267.224 792.559 267.64C794.131 270.401 792.761 272.561 791.819 273.67Z" fill="white" stroke="white" stroke-width="5.33333" mask="url(#path-14-inside-2)"/>
<path d="M391.682 306.028L391.824 306.275L392.11 306.278L428.724 306.646L429.019 306.649L429.164 306.391L447.148 274.502L447.288 274.253L447.145 274.006L428.475 241.668L428.333 241.421L428.047 241.419L391.438 241.048L391.143 241.045L390.998 241.302L373.009 273.195L372.869 273.443L373.011 273.69L391.682 306.028ZM430.801 309.735L390.04 309.323L369.337 273.465L389.361 237.959L430.117 238.374L450.82 274.231L430.801 309.735Z" fill="white" stroke="white"/>
<path d="M396.488 237.075C398.316 240.242 397.231 244.29 394.07 246.115C390.903 247.943 386.855 246.858 385.027 243.692C383.202 240.531 384.286 236.482 387.453 234.654C390.614 232.829 394.663 233.914 396.488 237.075Z" fill="white" stroke="white"/>
<path d="M435.13 304.004C436.958 307.171 435.873 311.22 432.712 313.045C429.546 314.873 425.497 313.788 423.669 310.621C421.841 307.455 422.925 303.406 426.092 301.578C429.253 299.753 433.302 300.838 435.13 304.004Z" fill="white" stroke="white"/>
<path d="M396.784 302.662C398.609 305.823 397.524 309.872 394.358 311.7C391.196 313.526 387.148 312.441 385.322 309.28C383.494 306.113 384.579 302.064 387.74 300.239C390.907 298.411 394.955 299.496 396.784 302.662Z" fill="white" stroke="white"/>
<path d="M453.146 270.121C454.971 273.283 453.886 277.331 450.719 279.16C447.553 280.988 443.504 279.903 441.679 276.742C439.851 273.575 440.936 269.526 444.102 267.698C447.269 265.87 451.317 266.955 453.146 270.121Z" fill="white" stroke="white"/>
<path d="M378.48 270.96C380.305 274.121 379.22 278.17 376.054 279.998C372.893 281.823 368.844 280.738 367.019 277.577C365.19 274.41 366.276 270.362 369.437 268.537C372.603 266.709 376.652 267.793 378.48 270.96Z" fill="white" stroke="white"/>
<path d="M434.842 238.419C436.667 241.58 435.583 245.629 432.416 247.457C429.249 249.285 425.201 248.2 423.376 245.039C421.548 241.873 422.633 237.824 425.799 235.996C428.965 234.168 433.014 235.253 434.842 238.419Z" fill="white" stroke="white"/>
<path d="M392.193 303.851L392.198 304.71L392.943 304.281L445.007 274.221L445.751 273.791L445.01 273.357L392.562 242.633L391.803 242.189L391.809 243.068L392.193 303.851ZM388.7 236.814L451.855 273.812L389.164 310.006L388.7 236.814Z" fill="white" stroke="white"/>
<path d="M24.4221 278.708L24.4986 278.983L24.7744 279.057L80.5337 293.998L80.8096 294.072L81.0134 293.872C91.8174 283.267 94.552 266.333 86.6272 252.606L86.3772 252.173L85.9442 252.423L66.9096 263.413L66.4765 263.663L66.7265 264.096L69.8664 269.534L70.1164 269.968L70.5495 269.718L82.5016 262.817C84.6535 270.798 82.8522 279.295 77.8105 285.735L31.2658 273.264C29.8656 262.964 34.6009 252.427 44.105 246.94C51.6813 242.566 60.4698 242.423 67.9815 245.73L68.4766 245.948L68.655 245.437L70.8957 239.019L71.0491 238.579L70.6215 238.395C61.0863 234.285 49.8708 234.577 40.1929 240.164C26.4668 248.089 20.3676 264.122 24.4221 278.708ZM28.3106 285.865L27.1521 285.561L27.7509 286.599C32.2586 294.406 39.6831 300.103 48.3912 302.436C57.0993 304.77 66.3777 303.548 74.1852 299.041C74.1852 299.041 74.1988 299.033 74.2135 299.023C74.228 299.014 74.2583 298.994 74.2913 298.962C74.3601 298.897 74.4966 298.723 74.4382 298.474C74.3953 298.292 74.2688 298.196 74.2403 298.175L74.2401 298.175C74.1941 298.14 74.1484 298.116 74.1187 298.102C74.007 298.048 73.8081 297.979 73.4745 297.876C72.7826 297.663 71.371 297.263 68.5239 296.491C62.8253 294.945 51.3492 291.9 28.3106 285.865ZM36.5064 233.779C41.2108 231.063 46.4041 229.3 51.7898 228.591C57.1755 227.882 62.6481 228.241 67.8952 229.647C73.1422 231.053 78.061 233.478 82.3706 236.785C86.6803 240.092 90.2964 244.215 93.0124 248.92C98.4978 258.421 99.9843 269.712 97.1448 280.309C94.3054 290.906 87.3726 299.941 77.8717 305.426C73.1673 308.142 67.974 309.905 62.5883 310.614C57.2026 311.323 51.73 310.964 46.4829 309.558C35.886 306.719 26.851 299.786 21.3657 290.285C15.8803 280.784 14.3938 269.493 17.2332 258.896C20.0727 248.299 27.0054 239.264 36.5064 233.779Z" fill="white" stroke="white"/>
<path d="M599.568 155.091C600.808 157.239 600.072 159.985 597.924 161.225C595.776 162.466 593.029 161.73 591.789 159.582C590.549 157.434 591.285 154.687 593.433 153.447C595.581 152.207 598.328 152.943 599.568 155.091Z" fill="white" stroke="white" stroke-width="4"/>
<path d="M603.792 171.39C623.972 159.739 636.699 144.002 632.218 136.241C627.736 128.479 607.745 131.632 587.565 143.283C567.385 154.934 554.658 170.671 559.139 178.432C563.621 186.194 583.612 183.041 603.792 171.39Z" stroke="white" stroke-width="4" stroke-miterlimit="10"/>
<path d="M630.812 177.621C635.293 169.859 623.196 154.486 603.792 143.283C584.388 132.08 565.026 129.29 560.545 137.052C556.064 144.813 568.161 160.187 587.565 171.39C606.969 182.593 626.331 185.382 630.812 177.621Z" stroke="white" stroke-width="4" stroke-miterlimit="10"/>
<path d="M611.53 157.679C611.53 135.462 604.276 117.452 595.328 117.452C586.379 117.452 579.125 135.462 579.125 157.679C579.125 179.895 586.379 197.905 595.328 197.905C604.276 197.905 611.53 179.895 611.53 157.679Z" stroke="white" stroke-width="4" stroke-miterlimit="10"/>
<path d="M242.68 116.203L187.424 148.105L219.326 203.36L274.581 171.458L242.68 116.203Z" stroke="white" stroke-width="4" stroke-miterlimit="10"/>
<path d="M223.846 163.489L223.346 162.623L222.48 163.123L216.931 166.326L215.215 163.354L231.725 153.822L233.441 156.794L227.757 160.076L226.891 160.576L227.391 161.442L238.699 181.028L235.154 183.075L223.846 163.489Z" fill="white" stroke="white" stroke-width="2"/>
<path d="M248.862 148.818C248.693 148.832 248.516 148.85 248.33 148.873C247.06 149.027 245.369 149.398 243.821 150.292C242.307 151.166 241.345 152.201 240.934 153.347C240.516 154.516 240.726 155.649 241.257 156.568C242.058 157.956 243.561 158.268 244.923 158.313C245.823 158.343 246.893 158.256 247.957 158.17C248.484 158.127 249.01 158.084 249.513 158.055C252.738 157.873 255.716 158.185 257.521 161.31C259.021 163.909 259.027 165.944 258.36 167.565C257.667 169.246 256.18 170.655 254.373 171.8C252.579 172.937 250.571 173.75 248.993 174.281C248.207 174.545 247.537 174.736 247.065 174.861C247.056 174.864 247.046 174.866 247.036 174.869L245.183 171.658C245.456 171.65 245.753 171.634 246.069 171.608C247.656 171.476 249.765 171.071 251.713 169.947C253.689 168.806 254.478 167.47 254.555 166.187C254.622 165.064 254.112 164.215 253.985 164.004C253.977 163.99 253.971 163.98 253.966 163.972C253.194 162.635 251.686 162.364 250.374 162.317C249.68 162.292 248.924 162.328 248.164 162.373C247.996 162.382 247.828 162.393 247.659 162.403C247.05 162.44 246.434 162.478 245.804 162.497C242.579 162.592 239.518 162.167 237.66 158.949C236.334 156.651 236.348 154.797 236.982 153.272C237.641 151.685 239.031 150.313 240.711 149.173C242.378 148.041 244.238 147.2 245.697 146.639C246.379 146.377 246.966 146.178 247.395 146.042L248.862 148.818Z" fill="white" stroke="white" stroke-width="2"/>
<path d="M799.027 45.8366L799.088 45.7565C798.093 44.531 796.82 43.6023 795.008 43.0977C793.214 42.5981 790.917 42.5213 787.876 42.9412C787.446 42.9785 787.012 43.0295 786.593 43.0789C786.482 43.0919 786.372 43.1049 786.263 43.1174C785.733 43.1785 785.23 43.2307 784.758 43.2485C783.814 43.2839 783.092 43.1752 782.586 42.8175C781.982 42.2164 781.793 41.9084 781.701 41.5229L781.698 41.5083L781.694 41.494C781.494 40.834 781.676 40.2142 782.107 39.6912C782.546 39.1591 783.229 38.7518 783.948 38.5809C784.864 38.3731 785.946 38.5437 787.002 39.2774L787.474 39.605L787.734 39.0926C788.616 37.3493 788.975 36.6415 789.342 35.938C789.593 35.4557 789.849 34.9755 790.28 34.1653L790.518 33.7176L790.067 33.4858C788.899 32.8856 788.301 32.6122 787.588 32.4363C785.028 31.5936 782.464 31.9328 779.271 33.8757L779.249 33.8891L779.229 33.9048L777.715 35.0555L777.693 35.0724L777.673 35.0917C776.276 36.425 775.2 38.2029 774.915 39.9637C774.432 42.374 775.201 44.8266 776.65 46.7075C778.098 48.5867 780.262 49.9442 782.638 50.119C784.593 50.3494 786.621 50.0928 788.395 49.8686C788.731 49.8261 789.059 49.7847 789.374 49.748C790.385 49.6306 791.27 49.5612 792.009 49.6272C792.738 49.6924 793.259 49.8844 793.612 50.2302C794.078 50.7611 794.288 51.2577 794.336 51.7054C794.384 52.1563 794.273 52.6042 794.021 53.0435C793.508 53.935 792.433 54.7462 791.137 55.2971C790.156 55.6025 789.317 55.6713 788.481 55.549C787.63 55.4245 786.753 55.0981 785.701 54.5739L785.281 54.3645L785.046 54.7705L782.224 59.6343L782.001 60.0197L782.358 60.286C783.313 60.9978 784.107 61.2607 785.066 61.5785C785.31 61.6592 785.564 61.7436 785.835 61.8398L785.853 61.846L785.871 61.851C789.232 62.7677 793.455 61.6335 796.596 59.387C799.739 57.1396 801.959 53.6532 801.014 49.7738C801.012 49.763 801.009 49.7499 801.005 49.7346C800.922 49.3692 800.547 47.7251 799.027 45.8366ZM768.747 41.1023L768.515 40.6124L768.045 40.8835L762.858 43.8779L762.425 44.1279L762.675 44.561C763.966 46.7957 765.245 49.0281 766.526 51.2625L766.528 51.2656C767.809 53.5008 769.092 55.7381 770.386 57.9807C770.721 58.5604 771.052 59.1204 771.369 59.6556C771.838 60.45 772.276 61.1898 772.645 61.8584C772.951 62.4137 773.199 62.9011 773.371 63.3087C773.548 63.7304 773.618 64.0123 773.619 64.1752L773.619 64.1925L773.62 64.2096C773.68 65.0198 773.308 65.6143 772.765 66.0579C772.225 66.4998 771.544 66.763 771.07 66.875C770.065 66.9312 769.345 66.6355 768.335 66.0642L768.329 66.0605L768.322 66.0569C768.231 66.0092 768.16 65.9694 768.091 65.9312C768.044 65.9055 767.999 65.8804 767.95 65.854C767.901 65.8273 767.841 65.7961 767.786 65.7729C767.76 65.762 767.714 65.744 767.66 65.7322C767.633 65.7262 767.588 65.7183 767.532 65.7192C767.48 65.72 767.383 65.7292 767.281 65.7882L767.159 65.8591L767.091 65.9839L764.379 71.0131L764.165 71.4104L764.539 71.664C766.142 72.753 767.988 73.4554 769.891 73.4845L769.891 73.4845C772.697 73.527 775.687 72.3134 778.184 70.0158L778.195 70.0054L778.206 69.9942C779.775 68.3598 780.796 66.2581 780.64 63.9592C780.607 62.4461 780.116 61.0454 779.437 59.673C778.961 58.7103 778.376 57.7317 777.777 56.7305C777.528 56.3146 777.277 55.8949 777.03 55.4707C775.224 52.2986 773.392 49.14 771.555 45.9723C770.638 44.3908 769.719 42.807 768.802 41.2182L768.747 41.1023ZM724.138 33.4269L778.688 1.93254L810.183 56.4824L755.633 87.9768L724.138 33.4269Z" fill="white" stroke="white"/>
<path d="M357.705 34.0269L357.099 34.3764L357.501 34.9486L391.914 84.0195L392.167 84.3797L392.594 84.2728L416.582 78.2668L416.759 78.2224L416.886 78.091L434.082 60.3196L434.388 60.0034L434.202 59.6045L408.912 5.26613L408.332 5.53618L408.012 4.98193L357.705 34.0269ZM393.559 54.0721L389.994 48.5537L405.031 39.8724L405.545 39.5755L405.287 39.0405L401.876 31.9555L401.577 31.334L400.979 31.6789L378.065 44.9086L374.358 39.4722L404.239 22.2203L410.929 35.6822L410.929 35.6831L420.819 55.5048L410.385 67.1816L395.058 70.3787L389.766 62.2673L395.439 58.9919L397.731 62.6184L397.965 62.9893L398.396 62.9045L406.729 61.2625L406.943 61.2203L407.087 61.0557L412.675 54.6601L412.956 54.3391L412.768 53.9566L408.866 46.0227L408.564 45.4088L407.972 45.7509L393.559 54.0721ZM423.616 30.6018L437.547 60.5348L418.132 80.6008L391.048 87.3812L353.282 33.5312L409.794 0.903709L423.616 30.6018Z" fill="white" stroke="white" stroke-width="1.28"/>
<path d="M26.03 39.9847L41.9713 30.7981L57.9119 21.612L60.3486 26.8806L35.3383 41.2921L34.391 41.8379L35.019 42.7329L39.6149 49.2824L40.1403 50.0312L40.9328 49.5744L64.5563 35.9598L73.8861 56.1065L62.9414 67.2237L47.8639 71.1069L41.6848 62.3002L46.7139 59.402L49.9267 63.9816L50.3272 64.5525L51.0014 64.374L59.6808 62.0754L59.9726 61.9982L60.1599 61.787L66.4882 55.4478L66.981 54.9541L66.6879 54.3211L62.4299 45.1259L61.9704 44.1336L61.023 44.6798L52.7242 49.4638L52.7241 49.4638L38.4491 57.6918L26.03 39.9847Z" fill="white" stroke="white" stroke-width="2"/>
<path d="M8.74649 34.2632L44.6827 85.4915L69.7499 79.0365L87.9258 60.576L61.6247 3.79212L8.74649 34.2632Z" stroke="white" stroke-width="4" stroke-miterlimit="10"/>
</mask>
<g mask="url(#mask0)">
<rect y="-11.2454" width="832.161" height="576.015" fill="url(#paint0_linear)"/>
</g>
<defs>
<linearGradient id="paint0_linear" x1="70.6147" y1="-3.43388" x2="269.773" y2="659.89" gradientUnits="userSpaceOnUse">
<stop offset="0.151042" stop-color="#D1D0FF"/>
<stop offset="0.671875" stop-color="#6981FF"/>
</linearGradient>
</defs>
</svg>
